<svg xmlns="http://www.w3.org/2000/svg" xmlns:xlink="http://www.w3.org/1999/xlink" width="1000" zoomAndPan="magnify" viewBox="0 0 750 749.999995" height="1000" preserveAspectRatio="xMidYMid meet" version="1.0"><defs><clipPath id="98bcb02caa"><path d="M 275 26.25 L 614 26.25 L 614 393 L 275 393 Z M 275 26.25 " clip-rule="nonzero"/></clipPath><clipPath id="54cb09fb2a"><path d="M 400 26.25 L 490 26.25 L 490 64 L 400 64 Z M 400 26.25 " clip-rule="nonzero"/></clipPath><clipPath id="a8cb99358e"><path d="M 474 637 L 595 637 L 595 723.75 L 474 723.75 Z M 474 637 " clip-rule="nonzero"/></clipPath><clipPath id="6b14596cd6"><path d="M 305 589 L 432 589 L 432 723.75 L 305 723.75 Z M 305 589 " clip-rule="nonzero"/></clipPath><clipPath id="74b7ecdf9a"><path d="M 474 589 L 596 589 L 596 723.75 L 474 723.75 Z M 474 589 " clip-rule="nonzero"/></clipPath><clipPath id="417d54a701"><path d="M 397.941406 465.207031 L 412.742188 465.207031 L 412.742188 480.207031 L 397.941406 480.207031 Z M 397.941406 465.207031 " clip-rule="nonzero"/></clipPath></defs><g clip-path="url(#98bcb02caa)"><path fill="#ffffff" d="M 355.554688 391.460938 C 336.996094 393.605469 322.75 393.347656 312.828125 390.691406 C 302.90625 388.039062 295.078125 382.390625 289.347656 373.757812 C 283.101562 360.546875 279.640625 352.976562 278.957031 351.046875 C 275.605469 341.582031 275.234375 332.285156 275.875 326.027344 C 276.714844 317.855469 281.203125 307.203125 289.347656 294.078125 C 290.507812 284.953125 292.433594 276.871094 295.121094 269.828125 C 297.8125 262.789062 303.199219 252.652344 311.289062 239.421875 L 312.441406 195.925781 C 315.855469 185.96875 319.0625 178.914062 322.066406 174.757812 C 325.066406 170.597656 328.53125 168.417969 332.457031 168.214844 C 335.769531 167.898438 338.851562 168.667969 341.695312 170.523438 C 344.542969 172.375 349.933594 177.125 357.863281 184.765625 C 364.414062 173.332031 371.855469 164.609375 380.1875 158.589844 C 388.519531 152.570312 399.554688 147.953125 413.289062 144.734375 L 415.214844 140.882812 L 415.445312 118.242188 L 409.054688 63.132812 L 400.589844 63.132812 L 413.675781 43.886719 C 414.84375 39.644531 415.996094 36.566406 417.140625 34.648438 C 418.28125 32.730469 420.414062 30.546875 423.535156 28.105469 C 423.59375 27.394531 426.160156 27.011719 431.242188 26.949219 C 436.320312 26.886719 444.320312 27.144531 455.246094 27.71875 C 459.910156 28.789062 463.117188 30.203125 464.867188 31.953125 C 466.621094 33.703125 468.160156 37.425781 469.488281 43.117188 L 488.25 63.15625 L 476.414062 63.902344 L 475.261719 100.46875 C 473.613281 106.738281 472.074219 110.972656 470.640625 113.167969 C 469.210938 115.367188 466.898438 117.035156 463.714844 118.171875 L 444.851562 119.328125 L 442.542969 141.652344 L 444.082031 144.734375 C 453.714844 147.484375 460.257812 149.667969 463.714844 151.277344 C 472.007812 155.140625 479.511719 160.734375 485.269531 170.523438 C 489.296875 177.375 493.46875 186.839844 499.125 196.695312 C 504.105469 205.375 513.214844 220.644531 526.453125 242.5 L 539.542969 254.046875 L 546.085938 267.136719 L 561.867188 279.066406 L 569.179688 255.203125 C 554.296875 232.621094 546.855469 218.25 546.855469 212.09375 C 546.855469 209.519531 548.410156 207.09375 549.933594 205.546875 C 552.054688 203.398438 554.972656 202.082031 559.941406 202.46875 C 563.253906 202.730469 566.460938 204.78125 569.566406 208.628906 L 613.828125 327.566406 C 609.421875 342.003906 605.574219 352.78125 602.28125 359.898438 C 598.988281 367.015625 594.113281 374.074219 587.65625 381.070312 C 578.347656 386.289062 570.523438 389.367188 564.175781 390.308594 C 557.828125 391.246094 547.4375 390.347656 532.996094 387.613281 C 527.941406 385.300781 524.605469 383.117188 522.988281 381.070312 C 517 373.476562 514.496094 363.84375 511.441406 358.746094 C 507.15625 351.582031 504.589844 344.90625 503.746094 338.730469 L 483.726562 273.679688 L 397.125 270.984375 L 389.039062 336.804688 C 384.621094 354.691406 379.875 367.78125 374.800781 376.066406 C 369.722656 384.351562 363.308594 389.484375 355.554688 391.460938 Z M 355.554688 391.460938 " fill-opacity="1" fill-rule="evenodd"/></g><path fill="#ffffff" d="M 361.519531 405.640625 C 359.949219 405.359375 358.792969 405.21875 358.050781 405.222656 C 355.195312 405.234375 352.867188 405.089844 351.503906 402.910156 C 349.605469 399.882812 350.117188 396.289062 353.042969 392.125 L 361.132812 389.429688 L 364.984375 389.429688 L 393.105469 390.585938 L 401.964844 389.429688 L 433.167969 388.273438 C 436.503906 389.816406 437.660156 392.769531 436.632812 397.132812 C 435.605469 401.5 432.78125 404.195312 428.160156 405.222656 L 418.914062 405.640625 L 356.511719 691.78125 L 316.449219 691.78125 C 323.308594 646.832031 328.828125 613.023438 333.011719 590.359375 C 337.195312 567.699219 346.699219 506.125 361.519531 405.640625 Z M 459.359375 405.640625 C 459.300781 404.734375 456.859375 404.59375 452.042969 405.222656 C 447.933594 403.167969 446.261719 399.957031 447.035156 395.59375 C 447.804688 391.226562 449.730469 388.917969 452.8125 388.660156 L 458.589844 389.429688 L 476.308594 389.429688 L 494.03125 390.585938 L 513.675781 388.660156 C 519.839844 389.171875 522.917969 391.996094 522.917969 397.132812 C 522.917969 400.050781 521.9375 401.566406 520.609375 402.910156 C 519.9375 403.59375 518.652344 404.363281 516.757812 405.222656 L 510.59375 405.640625 L 526.386719 692.167969 L 484.785156 692.167969 C 479.179688 640.644531 475.585938 604.523438 474 583.804688 C 472.109375 559.132812 461.421875 436.492188 459.359375 405.640625 Z M 459.359375 405.640625 " fill-opacity="1" fill-rule="evenodd"/><path stroke-linecap="butt" transform="matrix(1.209677, 0, 0, 1.209677, 0.00000265, 26.370971)" fill="none" stroke-linejoin="miter" d="M 298.856145 313.213124 L 346.302291 313.213124 L 294.716354 549.756042 L 261.59802 549.756042 C 267.268437 512.594792 271.831249 484.646354 275.289687 465.913958 C 278.748124 447.178333 286.604687 396.280208 298.856145 313.213124 Z M 379.737083 313.213124 L 422.090833 313.213124 L 435.146354 550.0725 L 400.755729 550.0725 C 396.121875 507.479792 393.151042 477.619687 391.84 460.495417 C 390.277083 440.096771 381.442083 338.713853 379.737083 313.213124 Z M 379.737083 313.213124 " stroke="#263e4b" stroke-width="0.955" stroke-opacity="1" stroke-miterlimit="4"/><path fill="#5a5aa5" d="M 397.339844 149.964844 L 353.910156 150.171875 C 332.242188 150.273438 314.429688 167.28125 313.324219 188.921875 L 312.597656 203.183594 C 313.273438 195.851562 314.171875 190.707031 315.292969 187.757812 C 317.070312 183.078125 319.121094 180.382812 321.457031 177.347656 C 324.984375 172.753906 328.984375 168.878906 332.242188 168.09375 C 339.691406 166.292969 348.035156 172.078125 357.28125 185.445312 C 358.828125 182.449219 360.113281 180.136719 361.132812 178.503906 C 363.167969 175.242188 365.335938 171.722656 369.222656 168.09375 C 376.925781 160.894531 386.300781 154.851562 397.339844 149.964844 Z M 397.339844 149.964844 " fill-opacity="1" fill-rule="evenodd"/><path fill="#5a5aa5" d="M 361.902344 388.675781 C 365.867188 390.121094 373.3125 390.761719 384.246094 390.601562 C 390.195312 390.515625 400.914062 388.738281 410.054688 388.289062 C 415.152344 388.039062 422.855469 388.039062 433.167969 388.289062 L 442.027344 364.765625 L 450.5 364.765625 L 453.195312 388.289062 C 462.210938 388.851562 468.632812 389.238281 472.457031 389.445312 C 480.683594 389.890625 487.527344 390.214844 492.875 390.214844 C 501.945312 390.214844 508.625 389.574219 512.90625 388.289062 L 493.257812 278.382812 L 401.964844 281.855469 C 400.769531 298.589844 396.40625 316.972656 388.867188 337 C 387.261719 341.269531 387.003906 346.664062 385.402344 352.039062 C 382.957031 360.230469 380.265625 368.15625 377.3125 373.632812 C 374.507812 378.832031 369.371094 383.847656 361.902344 388.675781 Z M 361.902344 388.675781 " fill-opacity="1" fill-rule="evenodd"/><path fill="#1d1d35" d="M 512.296875 388.542969 L 503.476562 337.097656 C 503.421875 336.78125 503.632812 336.484375 503.945312 336.429688 C 504.261719 336.375 504.558594 336.585938 504.613281 336.902344 L 513.390625 388.097656 L 514.636719 388.097656 C 519.53125 388.097656 523.496094 392.066406 523.496094 396.964844 C 523.496094 401.863281 519.53125 405.835938 514.636719 405.835938 L 453.855469 405.835938 C 449.515625 405.835938 446 402.316406 446 397.972656 C 446 397.609375 446.027344 397.246094 446.078125 396.886719 L 446.539062 393.574219 C 446.953125 390.59375 449.261719 388.261719 452.183594 387.78125 L 449.976562 365.34375 L 442.425781 365.34375 L 433.957031 387.828125 C 436.320312 388.371094 437.992188 390.578125 437.800781 393.074219 C 437.785156 393.289062 437.753906 393.503906 437.710938 393.714844 L 437.003906 397.082031 C 435.941406 402.183594 431.449219 405.835938 426.246094 405.835938 L 355.777344 405.835938 C 352.527344 405.835938 349.898438 403.199219 349.898438 399.949219 C 349.898438 399.332031 349.992188 398.722656 350.183594 398.136719 C 350.695312 396.546875 351.335938 394.492188 352.105469 391.976562 C 352.199219 391.671875 352.523438 391.5 352.828125 391.59375 C 353.132812 391.683594 353.304688 392.007812 353.210938 392.3125 C 352.441406 394.835938 351.796875 396.894531 351.28125 398.492188 C 351.128906 398.964844 351.050781 399.453125 351.050781 399.949219 C 351.050781 402.5625 353.167969 404.679688 355.777344 404.679688 L 426.246094 404.679688 C 430.902344 404.679688 434.921875 401.410156 435.875 396.847656 L 436.578125 393.476562 C 436.613281 393.316406 436.636719 393.152344 436.648438 392.984375 C 436.8125 390.878906 435.242188 389.035156 433.136719 388.867188 C 428.359375 388.773438 424.976562 388.726562 422.996094 388.722656 C 417.632812 388.714844 402.507812 389.59375 399.34375 390.019531 C 392.164062 390.980469 388.359375 391.121094 382.148438 390.910156 C 381.945312 390.902344 381.945312 390.902344 381.742188 390.894531 C 379.523438 390.820312 378.460938 390.792969 377.042969 390.792969 C 371.90625 390.792969 368.066406 390.667969 365.519531 390.40625 C 362.53125 390.101562 361.175781 389.675781 361.332031 388.59375 L 362.476562 388.753906 C 362.488281 388.671875 362.464844 388.609375 362.449219 388.582031 C 362.53125 388.644531 362.695312 388.71875 362.941406 388.796875 C 363.507812 388.976562 364.410156 389.128906 365.636719 389.257812 C 368.136719 389.511719 371.941406 389.636719 377.042969 389.636719 C 378.476562 389.636719 379.550781 389.664062 381.78125 389.738281 C 381.984375 389.746094 381.984375 389.746094 382.183594 389.753906 C 388.339844 389.960938 392.078125 389.824219 399.191406 388.871094 C 402.410156 388.441406 417.585938 387.558594 422.996094 387.566406 C 424.933594 387.570312 428.191406 387.613281 432.769531 387.703125 L 441.484375 364.558594 C 441.570312 364.335938 441.785156 364.1875 442.027344 364.1875 L 455.507812 364.1875 C 455.828125 364.1875 456.085938 364.445312 456.085938 364.765625 C 456.085938 365.085938 455.828125 365.34375 455.507812 365.34375 L 451.136719 365.34375 L 453.347656 387.847656 C 455.902344 388.269531 461 388.480469 468.605469 388.480469 C 471.464844 388.480469 485.441406 389.261719 489.460938 389.640625 C 494.042969 390.070312 501.660156 389.707031 512.296875 388.542969 Z M 512.925781 389.253906 L 512.96875 389.632812 C 501.976562 390.851562 494.109375 391.238281 489.351562 390.792969 C 485.367188 390.417969 471.425781 389.636719 468.605469 389.636719 C 460.472656 389.636719 455.183594 389.394531 452.699219 388.902344 L 452.703125 388.878906 C 450.121094 389.148438 448.042969 391.148438 447.683594 393.734375 L 447.222656 397.046875 C 447.179688 397.351562 447.15625 397.660156 447.15625 397.972656 C 447.15625 401.675781 450.15625 404.679688 453.855469 404.679688 L 514.636719 404.679688 C 518.890625 404.679688 522.34375 401.222656 522.34375 396.964844 C 522.34375 392.707031 518.890625 389.253906 514.636719 389.253906 Z M 512.925781 389.253906 " fill-opacity="1" fill-rule="nonzero"/><path fill="#1d1d35" d="M 445.65625 119.308594 L 443.414062 143.011719 C 461.675781 149.222656 473.347656 154.617188 478.484375 159.242188 C 485.144531 165.238281 502.21875 199.898438 510.964844 222.644531 C 513.605469 229.511719 517.703125 233.863281 527.640625 241.917969 L 528.476562 242.59375 C 538.457031 250.683594 542.535156 255.050781 545.035156 261.988281 C 548.890625 272.707031 556.609375 275.28125 568.515625 269.757812 C 568.804688 269.625 569.148438 269.753906 569.285156 270.042969 C 569.417969 270.332031 569.292969 270.675781 569.003906 270.808594 C 556.511719 276.601562 548.050781 273.777344 543.949219 262.382812 C 541.546875 255.707031 537.570312 251.449219 527.75 243.492188 L 526.914062 242.816406 C 516.824219 234.640625 512.625 230.179688 509.886719 223.058594 C 501.214844 200.511719 484.179688 165.925781 477.710938 160.101562 C 472.691406 155.582031 460.972656 150.183594 442.609375 143.957031 C 442.355469 143.871094 442.195312 143.625 442.222656 143.355469 L 444.496094 119.308594 L 437.789062 119.308594 C 437.46875 119.308594 437.210938 119.050781 437.210938 118.730469 C 437.210938 118.410156 437.46875 118.152344 437.789062 118.152344 L 445.125 118.152344 C 445.128906 118.152344 445.132812 118.152344 445.136719 118.152344 L 457.96875 118.152344 C 465.921875 118.152344 470.53125 114.914062 472.941406 108.375 C 474.875 103.121094 475.347656 97.042969 475.347656 84.058594 L 475.347656 75.214844 C 475.347656 75.089844 475.347656 74.992188 475.347656 74.765625 C 475.351562 70.46875 475.152344 67.988281 474.234375 64.210938 C 474.214844 64.191406 474.1875 64.164062 474.152344 64.128906 C 474.0625 64.039062 473.9375 63.921875 473.777344 63.777344 L 418.6875 63.777344 C 418.371094 63.777344 418.109375 63.519531 418.109375 63.199219 C 418.109375 62.878906 418.371094 62.621094 418.6875 62.621094 L 474 62.621094 C 474.140625 62.621094 474.277344 62.671875 474.382812 62.765625 C 475.0625 63.371094 475.265625 63.574219 475.328125 63.832031 C 476.300781 67.777344 476.507812 70.34375 476.503906 74.769531 C 476.503906 74.992188 476.503906 75.09375 476.503906 75.214844 L 476.503906 84.058594 C 476.503906 97.191406 476.023438 103.34375 474.023438 108.773438 C 471.449219 115.769531 466.40625 119.308594 457.96875 119.308594 Z M 614.429688 326.808594 L 615.539062 327.136719 C 605.859375 360.042969 595.582031 379.226562 584.578125 384.71875 C 567.253906 393.363281 546.070312 394.027344 528.828125 385.5625 C 526.550781 384.441406 524.761719 382.878906 522.945312 380.480469 C 521.652344 378.765625 520.375 376.707031 518.335938 373.128906 C 517.800781 372.195312 515.769531 368.59375 515.472656 368.066406 C 514.195312 365.8125 513.09375 363.894531 511.917969 361.898438 C 510.304688 359.160156 508.019531 353.117188 505.035156 343.730469 L 506.136719 343.378906 C 509.09375 352.683594 511.359375 358.675781 512.910156 361.308594 C 514.089844 363.3125 515.195312 365.234375 516.476562 367.492188 C 516.777344 368.023438 518.808594 371.625 519.339844 372.554688 C 521.355469 376.089844 522.609375 378.117188 523.867188 379.78125 C 525.578125 382.046875 527.230469 383.488281 529.339844 384.523438 C 546.246094 392.824219 567.050781 392.171875 584.0625 383.683594 C 594.675781 378.386719 604.839844 359.417969 614.429688 326.808594 Z M 614.429688 326.808594 " fill-opacity="1" fill-rule="nonzero"/><path fill="#5a5aa5" d="M 455.894531 148.421875 L 462.828125 151.125 C 467.707031 166.035156 471.429688 178.761719 474 189.300781 C 476.566406 199.84375 478.234375 215.523438 479.003906 236.347656 L 469.375 233.648438 C 470.144531 216.9375 468.734375 202.15625 465.140625 189.300781 C 463.574219 183.703125 460.492188 170.078125 455.894531 148.421875 Z M 396.957031 149.964844 L 403.503906 147.265625 C 405.046875 158.664062 405.816406 167.664062 405.816406 174.261719 C 405.816406 180.859375 405.816406 187.542969 405.816406 194.3125 L 395.800781 208.582031 C 397.339844 203.957031 398.113281 193.542969 398.113281 177.347656 C 398.113281 161.148438 397.726562 152.023438 396.957031 149.964844 Z M 396.957031 149.964844 " fill-opacity="1" fill-rule="evenodd"/><path fill="#1d1d35" d="M 455.714844 148.542969 L 455.492188 147.496094 L 463.675781 150.683594 L 463.761719 150.945312 C 468.644531 165.867188 472.371094 178.609375 474.945312 189.164062 C 477.523438 199.75 479.195312 215.46875 479.96875 236.328125 L 479.996094 237.121094 L 469.164062 234.082031 L 469.183594 233.621094 C 469.953125 216.96875 468.546875 202.25 464.96875 189.457031 C 463.398438 183.84375 460.3125 170.210938 455.714844 148.542969 Z M 466.082031 189.144531 C 469.660156 201.945312 471.085938 216.636719 470.359375 233.214844 L 478.785156 235.578125 C 478.003906 215.183594 476.347656 199.800781 473.820312 189.4375 C 471.273438 178.976562 467.582031 166.351562 462.75 151.5625 L 457.066406 149.351562 C 461.539062 170.382812 464.542969 183.652344 466.082031 189.144531 Z M 396.800781 150.167969 L 396.605469 149.644531 L 404.363281 146.445312 L 404.464844 147.191406 C 406.007812 158.609375 406.78125 167.632812 406.78125 174.261719 L 406.78125 194.496094 L 394.390625 212.148438 L 395.636719 208.402344 C 397.152344 203.855469 397.917969 193.476562 397.917969 177.347656 C 397.917969 161.277344 397.535156 152.125 396.800781 150.167969 Z M 399.074219 177.347656 C 399.074219 190.71875 398.550781 200.160156 397.496094 205.714844 L 405.625 194.132812 L 405.625 174.261719 C 405.625 167.835938 404.890625 159.109375 403.417969 148.085938 L 398.042969 150.304688 C 398.742188 153.199219 399.074219 162.136719 399.074219 177.347656 Z M 399.074219 177.347656 " fill-opacity="1" fill-rule="nonzero"/><path fill="#1d1d35" d="M 444.9375 150.128906 L 446.046875 149.804688 L 498.449219 326.863281 C 501.445312 342.515625 512.238281 350.304688 531.007812 350.304688 C 549.792969 350.304688 565.230469 337.753906 577.351562 312.542969 L 578.390625 313.042969 C 566.097656 338.617188 550.296875 351.460938 531.007812 351.460938 C 511.710938 351.460938 500.417969 343.3125 497.328125 327.136719 Z M 473.429688 293.335938 L 474.570312 293.511719 C 468.621094 332.074219 457.445312 351.460938 440.871094 351.460938 C 427.460938 351.460938 418.539062 309.691406 414.871094 229.820312 C 414.179688 214.757812 413.792969 189.042969 413.714844 152.667969 L 414.867188 152.664062 C 414.949219 189.027344 415.332031 214.726562 416.023438 229.765625 C 419.644531 308.597656 428.554688 350.304688 440.871094 350.304688 C 456.652344 350.304688 467.5625 331.382812 473.429688 293.335938 Z M 473.429688 293.335938 " fill-opacity="1" fill-rule="nonzero"/><path fill="#1d1d35" d="M 530.992188 274.367188 L 571.355469 270.125 L 573.742188 292.835938 L 533.378906 297.078125 Z M 493.554688 233.644531 L 489.761719 197.554688 C 491.285156 193.652344 495.292969 191.359375 501.792969 190.675781 C 508.289062 189.992188 512.6875 191.402344 514.988281 194.902344 L 518.78125 230.992188 Z M 599.507812 222.507812 L 574.28125 225.160156 L 570.488281 189.070312 C 572.007812 185.167969 576.019531 182.875 582.519531 182.191406 C 589.015625 181.507812 593.414062 182.917969 595.714844 186.417969 Z M 599.507812 222.507812 " fill-opacity="1" fill-rule="evenodd"/><path fill="#ffffff" d="M 490.386719 273.71875 L 484.523438 217.945312 C 486.980469 211.902344 493.40625 208.335938 503.804688 207.242188 C 514.199219 206.148438 521.226562 208.300781 524.886719 213.703125 L 530.75 269.476562 Z M 611.472656 260.992188 L 571.113281 265.234375 L 565.25 209.460938 C 567.707031 203.417969 574.132812 199.847656 584.527344 198.757812 C 594.925781 197.664062 601.953125 199.816406 605.613281 205.21875 Z M 611.472656 260.992188 " fill-opacity="1" fill-rule="evenodd"/><path stroke-linecap="round" transform="matrix(1.209677, 0, 0, 1.209677, 0.00000265, 26.370971)" fill-opacity="1" fill="#ffffff" fill-rule="evenodd" stroke-linejoin="round" d="M 405.176458 204.603332 L 400.329479 158.494061 C 402.360625 153.49854 407.672604 150.550311 416.265417 149.649373 C 424.861458 148.745207 430.670729 150.524477 433.696458 154.987186 L 438.543438 201.096457 Z M 505.274167 194.082707 L 471.910417 197.589582 L 467.063438 151.480311 C 469.094584 146.488019 474.406563 143.536561 482.999375 142.632394 C 491.595417 141.731457 497.404688 143.510727 500.430417 147.973436 Z M 505.274167 194.082707 " stroke="#263e4b" stroke-width="0.955" stroke-opacity="1" stroke-miterlimit="4"/><path fill="#ffffff" d="M 489.140625 335.539062 L 482.359375 271.015625 C 485.867188 263.953125 494.769531 259.671875 509.066406 258.167969 C 523.359375 256.667969 532.957031 259.003906 537.859375 265.179688 L 544.640625 329.707031 Z M 625.367188 321.222656 L 569.867188 327.054688 L 563.085938 262.527344 C 566.59375 255.46875 575.496094 251.1875 589.789062 249.6875 C 604.085938 248.183594 613.683594 250.519531 618.582031 256.695312 Z M 625.367188 321.222656 " fill-opacity="1" fill-rule="evenodd"/><path fill="#1d1d35" d="M 489.023438 336.132812 C 488.707031 336.167969 488.421875 335.9375 488.390625 335.617188 L 481.609375 271.09375 C 481.59375 270.984375 481.617188 270.875 481.664062 270.773438 C 485.28125 263.5 494.355469 259.132812 508.828125 257.613281 C 523.296875 256.09375 533.082031 258.472656 538.132812 264.839844 C 538.203125 264.925781 538.242188 265.03125 538.253906 265.136719 L 545.035156 329.664062 C 545.070312 329.980469 544.839844 330.265625 544.523438 330.300781 Z M 543.828125 329.210938 L 537.125 265.429688 C 532.339844 259.539062 522.964844 257.292969 508.949219 258.765625 C 494.933594 260.238281 486.230469 264.382812 482.773438 271.140625 L 489.476562 334.921875 Z M 625.761719 321.179688 C 625.796875 321.496094 625.566406 321.78125 625.25 321.816406 L 569.75 327.648438 C 569.433594 327.683594 569.148438 327.453125 569.113281 327.132812 L 562.332031 262.609375 C 562.320312 262.5 562.339844 262.390625 562.390625 262.289062 C 566.003906 255.015625 575.082031 250.648438 589.550781 249.128906 C 604.023438 247.609375 613.808594 249.992188 618.859375 256.355469 C 618.925781 256.441406 618.96875 256.542969 618.980469 256.652344 Z M 624.554688 320.726562 L 617.847656 256.945312 C 613.066406 251.054688 603.691406 248.804688 589.671875 250.28125 C 575.65625 251.753906 566.953125 255.898438 563.5 262.65625 L 570.203125 326.4375 Z M 624.554688 320.726562 " fill-opacity="1" fill-rule="nonzero"/><path fill="#1d1d35" d="M 517.707031 342.105469 C 502.382812 343.714844 489.511719 340.785156 488.964844 335.558594 C 488.414062 330.332031 500.394531 324.789062 515.71875 323.175781 C 531.042969 321.566406 543.914062 324.5 544.460938 329.726562 C 545.011719 334.953125 533.035156 340.496094 517.707031 342.105469 Z M 598.433594 333.621094 C 583.109375 335.230469 570.238281 332.300781 569.6875 327.074219 C 569.140625 321.847656 581.117188 316.304688 596.445312 314.691406 C 611.769531 313.082031 624.640625 316.015625 625.1875 321.242188 C 625.738281 326.46875 613.757812 332.011719 598.433594 333.621094 Z M 598.433594 333.621094 " fill-opacity="1" fill-rule="evenodd"/><path fill="#1d1d35" d="M 475.320312 284.625 C 480.167969 284.117188 483.679688 279.773438 483.171875 274.925781 C 482.664062 270.078125 478.320312 266.5625 473.476562 267.070312 C 468.632812 267.578125 465.117188 271.921875 465.625 276.769531 C 466.132812 281.617188 470.476562 285.136719 475.320312 284.625 Z M 475.199219 283.476562 C 470.992188 283.917969 467.21875 280.863281 466.773438 276.648438 C 466.332031 272.4375 469.386719 268.664062 473.597656 268.21875 C 477.808594 267.777344 481.578125 270.835938 482.023438 275.046875 C 482.464844 279.257812 479.410156 283.03125 475.199219 283.476562 Z M 475.199219 283.476562 " fill-opacity="1" fill-rule="nonzero"/><path fill="#1d1d35" d="M 290.359375 294.171875 L 298.144531 291.335938 C 298.445312 291.226562 298.777344 291.382812 298.886719 291.683594 C 298.996094 291.980469 298.839844 292.316406 298.542969 292.421875 L 291.621094 294.945312 L 298.636719 299.09375 C 298.914062 299.257812 299.003906 299.613281 298.839844 299.886719 C 298.679688 300.160156 298.324219 300.253906 298.050781 300.089844 L 290.214844 295.457031 L 290.066406 295.507812 C 290 295.535156 289.929688 295.542969 289.859375 295.542969 C 275.710938 314.402344 272.441406 333.011719 280.003906 351.433594 C 287.375 369.394531 290.6875 375.804688 296.273438 381.335938 C 302.714844 387.714844 311.582031 391.027344 326.914062 392.726562 C 355.824219 395.929688 372.710938 386.339844 380.234375 364.957031 C 384.933594 351.601562 387.621094 342.246094 388.292969 336.925781 C 388.335938 336.609375 388.625 336.382812 388.941406 336.425781 C 389.257812 336.464844 389.480469 336.753906 389.441406 337.070312 C 388.753906 342.496094 386.046875 351.910156 381.324219 365.34375 C 373.617188 387.25 356.210938 397.136719 326.785156 393.878906 C 311.21875 392.152344 302.117188 388.75 295.460938 382.15625 C 289.722656 376.472656 286.371094 369.984375 278.933594 351.875 C 271.167969 332.949219 274.59375 313.8125 289.171875 294.535156 C 290.742188 274.960938 297.839844 256.640625 310.457031 239.585938 C 323.039062 222.582031 336 209.796875 349.355469 201.238281 C 358.378906 177.296875 371.484375 161.265625 388.671875 153.179688 C 397.234375 149.148438 403.664062 146.46875 407.964844 145.136719 C 410.847656 144.246094 412.898438 143.917969 414.042969 144.28125 L 416.023438 107.902344 C 416.042969 107.582031 416.316406 107.335938 416.632812 107.351562 C 416.953125 107.371094 417.195312 107.644531 417.179688 107.964844 L 415.117188 145.808594 C 415.078125 146.558594 413.964844 146.527344 413.964844 145.777344 C 413.964844 145.070312 412.179688 145.046875 408.304688 146.242188 C 404.066406 147.554688 397.683594 150.214844 389.164062 154.226562 C 372.230469 162.195312 359.296875 178.046875 350.367188 201.824219 C 350.324219 201.941406 350.242188 202.042969 350.136719 202.109375 C 336.855469 210.585938 323.9375 223.308594 311.386719 240.273438 C 298.992188 257.027344 291.984375 274.988281 290.359375 294.171875 Z M 290.359375 294.171875 " fill-opacity="1" fill-rule="nonzero"/><path fill="#ffffff" d="M 414.675781 141.097656 L 409.265625 154.800781 C 408.953125 155.59375 409.339844 156.488281 410.132812 156.800781 C 410.445312 156.925781 410.789062 156.941406 411.109375 156.851562 L 434.222656 150.4375 L 449.519531 155.890625 C 450.324219 156.175781 451.203125 155.753906 451.492188 154.953125 C 451.660156 154.472656 451.582031 153.941406 451.285156 153.53125 L 442.796875 141.867188 C 441.222656 143.238281 437.851562 143.925781 432.679688 143.925781 C 427.507812 143.925781 421.507812 142.984375 414.675781 141.097656 Z M 414.675781 141.097656 " fill-opacity="1" fill-rule="evenodd"/><path fill="#1d1d35" d="M 433.863281 150.859375 L 411.648438 157.023438 C 411.207031 157.148438 410.734375 157.121094 410.304688 156.953125 C 409.21875 156.519531 408.683594 155.289062 409.113281 154.199219 L 414.523438 140.5 C 414.632812 140.222656 414.929688 140.074219 415.214844 140.152344 C 422 142.027344 427.949219 142.960938 433.066406 142.960938 C 438.105469 142.960938 441.367188 142.296875 442.800781 141.046875 C 443.058594 140.824219 443.449219 140.867188 443.648438 141.140625 L 452.132812 152.800781 C 452.546875 153.367188 452.652344 154.097656 452.417969 154.761719 C 452.023438 155.863281 450.8125 156.4375 449.710938 156.046875 L 435.023438 150.816406 C 435.046875 151.035156 435.078125 151.292969 435.113281 151.585938 C 435.257812 152.84375 435.472656 154.789062 435.761719 157.421875 C 436.339844 162.695312 437.207031 170.730469 438.363281 181.527344 C 438.398438 181.84375 438.167969 182.128906 437.851562 182.164062 C 437.53125 182.199219 437.25 181.96875 437.214844 181.648438 C 436.058594 170.855469 435.191406 162.820312 434.613281 157.550781 C 434.324219 154.917969 434.109375 152.972656 433.964844 151.71875 C 433.925781 151.382812 433.890625 151.097656 433.863281 150.859375 Z M 433.847656 144.113281 C 433.976562 144.609375 434.097656 145.160156 434.214844 145.761719 C 434.402344 146.746094 434.550781 147.691406 434.726562 148.9375 L 434.800781 149.46875 C 434.800781 149.480469 434.804688 149.496094 434.804688 149.507812 L 450.097656 154.957031 C 450.601562 155.136719 451.152344 154.875 451.328125 154.371094 C 451.433594 154.070312 451.386719 153.738281 451.199219 153.480469 L 443.0625 142.300781 C 441.316406 143.460938 438.253906 144.050781 433.847656 144.113281 Z M 433.667969 149.714844 C 433.664062 149.6875 433.660156 149.660156 433.65625 149.628906 L 433.582031 149.101562 C 433.410156 147.871094 433.261719 146.941406 433.078125 145.980469 C 432.945312 145.28125 432.804688 144.65625 432.65625 144.117188 C 427.648438 144.070312 421.902344 143.164062 415.40625 141.40625 L 410.1875 154.625 C 409.992188 155.121094 410.234375 155.679688 410.730469 155.875 C 410.925781 155.953125 411.140625 155.964844 411.339844 155.910156 Z M 433.667969 149.714844 " fill-opacity="1" fill-rule="nonzero"/><path fill="#ffffff" d="M 354.96875 273.484375 C 386.9375 222.476562 405.296875 194.324219 410.054688 189.03125 C 413.765625 184.898438 420.125 184.558594 424.257812 188.269531 C 427.351562 191.050781 428.414062 195.445312 426.9375 199.328125 L 415.445312 229.523438 " fill-opacity="1" fill-rule="evenodd"/><path fill="#1d1d35" d="M 355.324219 274.0625 C 387.253906 223.113281 405.625 194.941406 410.347656 189.6875 C 413.851562 185.792969 419.84375 185.476562 423.734375 188.980469 C 426.648438 191.601562 427.648438 195.75 426.253906 199.414062 L 414.773438 229.585938 L 415.851562 230 L 427.335938 199.824219 C 428.898438 195.714844 427.777344 191.0625 424.507812 188.121094 C 420.144531 184.1875 413.417969 184.542969 409.492188 188.914062 C 404.699219 194.246094 386.347656 222.382812 354.347656 273.449219 Z M 355.324219 274.0625 " fill-opacity="1" fill-rule="nonzero"/><path fill="#1d1d35" d="M 426.375 85.972656 C 425.472656 85.707031 424.523438 85.566406 423.535156 85.566406 C 418.003906 85.566406 413.519531 90.054688 413.519531 95.59375 C 413.519531 100.296875 416.757812 104.246094 421.125 105.324219 L 420.671875 114.65625 C 420.550781 117.144531 418.480469 119.089844 415.988281 119.054688 L 404.101562 118.886719 C 403.339844 118.875 402.582031 118.761719 401.851562 118.550781 C 397.355469 117.238281 394.773438 112.535156 396.085938 108.042969 L 409.148438 63.199219 L 410.695312 63.199219 L 410.703125 63.191406 L 412.515625 63.199219 L 419.296875 63.199219 L 419.300781 63.230469 L 435.417969 63.308594 C 433.554688 71.867188 431.882812 77.585938 430.402344 80.464844 C 429.34375 82.519531 428.003906 84.359375 426.375 85.972656 Z M 481.121094 63.199219 C 482.636719 69.625 480.292969 72.839844 474.078125 72.839844 C 467.867188 72.839844 458.550781 69.625 446.128906 63.199219 Z M 481.121094 63.199219 " fill-opacity="1" fill-rule="evenodd"/><path fill="#ffffff" d="M 338.546875 286.945312 L 390.855469 240.339844 C 398.46875 233.554688 408.347656 229.867188 418.542969 229.996094 L 478.101562 230.765625 C 486.238281 230.867188 492.886719 237.285156 493.28125 245.410156 C 493.65625 253.101562 487.722656 259.640625 480.03125 260.015625 C 479.855469 260.023438 479.683594 260.027344 479.507812 260.03125 L 429.082031 260.582031 C 426 260.617188 423.523438 263.144531 423.558594 266.230469 C 423.558594 266.230469 423.558594 266.234375 423.558594 266.234375 C 423.597656 269.359375 426.09375 271.894531 429.214844 271.980469 L 481.265625 273.40625 C 488.355469 273.601562 494.015625 279.386719 494.054688 286.480469 C 494.089844 293.472656 488.453125 299.171875 481.460938 299.207031 C 481.4375 299.207031 481.414062 299.207031 481.394531 299.207031 L 431.78125 299.207031 C 428.730469 299.207031 426.253906 301.679688 426.253906 304.730469 C 426.253906 304.753906 426.253906 304.777344 426.257812 304.796875 C 426.296875 308.15625 428.4375 311.125 431.605469 312.226562 L 463.375 323.253906 C 468.871094 325.160156 471.78125 331.164062 469.871094 336.664062 C 469.789062 336.90625 469.695312 337.148438 469.59375 337.386719 C 467.046875 343.273438 460.421875 346.238281 454.335938 344.207031 L 402.691406 326.972656 L 374.75 345.621094 C 360.421875 355.183594 341.050781 351.320312 331.488281 336.992188 C 330.589844 335.644531 329.796875 334.226562 329.117188 332.757812 C 326.683594 327.488281 325.921875 319.941406 326.839844 310.117188 C 327.671875 301.191406 331.855469 292.910156 338.546875 286.945312 Z M 338.546875 286.945312 " fill-opacity="1" fill-rule="evenodd"/><path fill="#1d1d35" d="M 336.46875 341.71875 L 346.210938 335.445312 C 342.867188 332.25 340.167969 328.324219 337.886719 323.761719 C 334.582031 317.144531 335.667969 304.492188 341.085938 285.722656 L 339.238281 287.367188 C 332.644531 293.242188 328.523438 301.40625 327.707031 310.207031 C 326.804688 319.921875 327.554688 327.363281 329.9375 332.515625 C 330.597656 333.949219 331.371094 335.332031 332.25 336.648438 C 333.496094 338.523438 334.914062 340.214844 336.46875 341.71875 Z M 337.34375 342.53125 C 347.496094 351.605469 362.855469 353.0625 374.707031 345.152344 L 377.402344 343.351562 C 366.691406 345.289062 357.980469 343.707031 350.996094 339.222656 C 349.605469 338.328125 348.308594 337.339844 347.089844 336.257812 Z M 341.703125 283.625 C 341.703125 283.621094 341.703125 283.621094 341.703125 283.617188 C 341.769531 283.394531 341.953125 283.242188 342.167969 283.210938 L 390.769531 239.90625 C 398.488281 233.027344 408.5 229.285156 418.832031 229.417969 L 478.421875 230.1875 C 486.851562 230.292969 493.746094 236.953125 494.15625 245.382812 C 494.542969 253.394531 488.375 260.203125 480.371094 260.59375 C 480.191406 260.601562 480.007812 260.605469 479.824219 260.609375 L 429.378906 261.160156 C 426.617188 261.191406 424.402344 263.457031 424.433594 266.222656 L 424.433594 266.226562 C 424.464844 269.039062 426.710938 271.324219 429.519531 271.402344 L 481.589844 272.828125 C 488.984375 273.03125 494.886719 279.070312 494.925781 286.476562 C 494.964844 293.789062 489.074219 299.746094 481.773438 299.785156 L 432.070312 299.785156 C 429.339844 299.785156 427.128906 302 427.128906 304.730469 C 427.128906 304.761719 427.128906 304.761719 427.128906 304.792969 C 427.167969 307.902344 429.148438 310.65625 432.085938 311.675781 L 463.867188 322.710938 C 469.65625 324.71875 472.722656 331.046875 470.714844 336.84375 C 470.625 337.105469 470.527344 337.363281 470.417969 337.613281 C 467.753906 343.78125 460.824219 346.882812 454.457031 344.757812 L 403.070312 327.609375 L 375.347656 346.113281 C 360.746094 355.859375 341.019531 351.910156 331.289062 337.292969 C 330.378906 335.925781 329.574219 334.492188 328.886719 333 C 326.40625 327.632812 325.636719 320 326.554688 310.101562 C 327.398438 301.007812 331.65625 292.574219 338.472656 286.503906 Z M 342.714844 284.273438 C 336.929688 303.75 335.6875 316.773438 338.921875 323.242188 C 342.117188 329.640625 346.140625 334.726562 351.621094 338.246094 C 358.757812 342.832031 367.792969 344.273438 379.117188 341.832031 C 379.273438 341.800781 379.429688 341.832031 379.554688 341.914062 L 402.898438 326.335938 L 454.824219 343.660156 C 460.621094 345.59375 466.929688 342.769531 469.355469 337.15625 C 469.453125 336.929688 469.542969 336.699219 469.625 336.464844 C 471.421875 331.273438 468.675781 325.605469 463.488281 323.804688 L 431.707031 312.769531 C 428.308594 311.589844 426.015625 308.40625 425.972656 304.804688 C 425.972656 304.769531 425.972656 304.769531 425.972656 304.730469 C 425.972656 301.359375 428.703125 298.628906 432.070312 298.628906 L 481.765625 298.628906 C 488.429688 298.59375 493.804688 293.15625 493.769531 286.484375 C 493.734375 279.703125 488.328125 274.171875 481.558594 273.984375 L 429.488281 272.558594 C 426.058594 272.464844 423.316406 269.675781 423.277344 266.242188 L 423.277344 266.234375 C 423.238281 262.832031 425.964844 260.042969 429.367188 260.003906 L 479.8125 259.453125 C 479.980469 259.449219 480.148438 259.445312 480.316406 259.4375 C 487.679688 259.078125 493.359375 252.8125 493 245.4375 C 492.621094 237.617188 486.226562 231.441406 478.40625 231.34375 L 418.816406 230.574219 C 408.773438 230.445312 399.042969 234.082031 391.539062 240.769531 Z M 342.714844 284.273438 " fill-opacity="1" fill-rule="nonzero"/><path fill="#ffffff" d="M 599.25 244.230469 L 599.257812 245.796875 C 599.296875 253.792969 605.789062 260.257812 613.785156 260.257812 L 624.75 260.257812 C 615.691406 260.953125 609.785156 263.910156 607.03125 269.128906 C 602.691406 277.34375 605.832031 287.523438 614.050781 291.859375 C 616.472656 293.140625 619.167969 293.808594 621.90625 293.808594 L 626.675781 293.808594 L 625.371094 294.449219 C 616.207031 298.945312 612.421875 310.023438 616.921875 319.1875 C 617.191406 319.742188 617.492188 320.28125 617.816406 320.804688 C 622.195312 326.902344 630.691406 328.296875 636.789062 323.917969 C 637.199219 323.625 637.589844 323.308594 637.960938 322.972656 L 646.464844 315.3125 C 651.160156 311.082031 653.371094 304.746094 652.320312 298.511719 C 652.246094 298.058594 652.171875 297.648438 652.097656 297.28125 C 651.65625 295.03125 650.113281 291.6875 647.476562 287.253906 C 649.273438 283.652344 649.789062 279.28125 649.015625 274.140625 C 648.246094 269 646.066406 264.5 642.46875 260.644531 C 644.21875 256.15625 644.476562 251.140625 643.238281 245.605469 C 642.75 243.410156 642.070312 241.542969 641.203125 239.996094 C 639.613281 237.164062 636.746094 235.277344 633.515625 234.941406 L 612.011719 232.679688 C 605.667969 232.015625 599.980469 236.621094 599.3125 242.96875 C 599.269531 243.386719 599.25 243.808594 599.25 244.230469 Z M 599.25 244.230469 " fill-opacity="1" fill-rule="evenodd"/><path fill="#1d1d35" d="M 626.835938 292.84375 L 647.316406 286.390625 C 648.972656 282.945312 649.433594 278.769531 648.695312 273.839844 C 647.945312 268.828125 645.824219 264.449219 642.328125 260.683594 L 642.324219 260.835938 L 624.570312 260.488281 C 615.960938 261.234375 610.390625 264.089844 607.792969 269.011719 C 603.605469 276.941406 606.628906 286.769531 614.550781 290.960938 C 616.886719 292.199219 619.488281 292.84375 622.132812 292.84375 Z M 627.140625 293.960938 L 625.867188 294.585938 C 617.003906 298.9375 613.339844 309.660156 617.683594 318.535156 C 617.949219 319.074219 618.238281 319.601562 618.535156 320.078125 C 622.734375 325.925781 630.871094 327.257812 636.710938 323.054688 C 637.097656 322.777344 637.46875 322.480469 637.824219 322.160156 L 646.320312 314.507812 C 650.875 310.402344 653.019531 304.246094 651.996094 298.195312 C 651.925781 297.757812 651.851562 297.359375 651.78125 297.003906 C 651.367188 294.902344 649.929688 291.742188 647.464844 287.554688 Z M 625 259.339844 L 642.320312 259.679688 C 643.902344 255.398438 644.105469 250.621094 642.925781 245.34375 C 642.449219 243.207031 641.789062 241.390625 640.953125 239.902344 C 639.453125 237.226562 636.753906 235.449219 633.707031 235.128906 L 612.203125 232.871094 C 606.171875 232.238281 600.773438 236.617188 600.140625 242.65625 C 600.097656 243.054688 600.078125 243.453125 600.078125 243.851562 L 600.085938 245.410156 C 600.121094 253.085938 606.351562 259.292969 614.019531 259.292969 L 625 259.292969 Z M 606.769531 268.472656 C 608.824219 264.578125 612.550781 261.910156 617.910156 260.449219 L 614.019531 260.449219 C 605.714844 260.449219 598.96875 253.730469 598.933594 245.414062 L 598.921875 243.859375 C 598.921875 243.417969 598.945312 242.976562 598.988281 242.535156 C 599.6875 235.863281 605.660156 231.019531 612.324219 231.722656 L 633.828125 233.976562 C 637.246094 234.335938 640.277344 236.335938 641.960938 239.335938 C 642.855469 240.929688 643.554688 242.851562 644.054688 245.089844 C 645.285156 250.597656 645.0625 255.617188 643.386719 260.128906 C 646.917969 264.011719 649.070312 268.527344 649.839844 273.667969 C 650.605469 278.789062 650.125 283.183594 648.382812 286.839844 C 650.957031 291.195312 652.464844 294.5 652.917969 296.78125 C 652.988281 297.148438 653.0625 297.554688 653.136719 298 C 654.222656 304.445312 651.941406 310.996094 647.089844 315.367188 L 638.597656 323.019531 C 638.210938 323.367188 637.808594 323.695312 637.386719 323.996094 C 631.027344 328.570312 622.167969 327.121094 617.574219 320.722656 C 617.238281 320.179688 616.925781 319.617188 616.644531 319.042969 C 612.164062 309.890625 615.683594 298.890625 624.492188 294 L 622.132812 294 C 619.300781 294 616.511719 293.308594 614.007812 291.984375 C 605.523438 287.492188 602.285156 276.964844 606.769531 268.472656 Z M 614.003906 235.953125 C 614.324219 235.945312 614.585938 236.203125 614.589844 236.519531 C 614.597656 236.839844 614.339844 237.101562 614.019531 237.109375 C 609.761719 237.167969 607.871094 239.714844 608.238281 245.050781 C 608.605469 250.414062 610.503906 252.816406 613.976562 252.574219 C 614.292969 252.554688 614.570312 252.792969 614.59375 253.113281 C 614.617188 253.429688 614.375 253.707031 614.058594 253.730469 C 609.832031 254.023438 607.492188 251.054688 607.085938 245.132812 C 606.675781 239.183594 609.023438 236.019531 614.003906 235.953125 Z M 619.527344 268.9375 C 619.847656 268.910156 620.125 269.148438 620.152344 269.464844 C 620.179688 269.785156 619.941406 270.0625 619.625 270.089844 C 615.378906 270.449219 613.671875 273.121094 614.410156 278.417969 C 615.148438 283.738281 617.210938 286.007812 620.660156 285.523438 C 620.976562 285.476562 621.265625 285.699219 621.3125 286.015625 C 621.355469 286.332031 621.136719 286.625 620.820312 286.667969 C 616.625 287.257812 614.082031 284.460938 613.265625 278.578125 C 612.441406 272.671875 614.5625 269.355469 619.527344 268.9375 Z M 627.628906 302.667969 C 627.941406 302.605469 628.246094 302.804688 628.3125 303.117188 C 628.375 303.429688 628.175781 303.738281 627.863281 303.800781 C 623.695312 304.675781 622.324219 307.535156 623.703125 312.703125 C 625.085938 317.894531 627.40625 319.894531 630.773438 318.996094 C 631.082031 318.910156 631.398438 319.09375 631.480469 319.402344 C 631.5625 319.710938 631.378906 320.027344 631.070312 320.109375 C 626.980469 321.207031 624.113281 318.742188 622.585938 313 C 621.050781 307.238281 622.75 303.691406 627.628906 302.667969 Z M 627.628906 302.667969 " fill-opacity="1" fill-rule="nonzero"/><path fill="#ffffff" d="M 127.097656 406.175781 L 145.800781 601.523438 L 155.429688 601.523438 L 146.257812 404.296875 C 146.019531 399.121094 141.628906 395.121094 136.453125 395.359375 C 136.292969 395.367188 136.136719 395.378906 135.980469 395.394531 C 130.550781 395.921875 126.578125 400.746094 127.097656 406.175781 Z M 127.097656 406.175781 " fill-opacity="1" fill-rule="evenodd"/><path fill="#1d1d35" d="M 126.519531 405.867188 L 145.277344 601.738281 L 156.035156 601.738281 L 146.835938 403.90625 C 146.582031 398.410156 141.921875 394.164062 136.425781 394.421875 C 136.257812 394.425781 136.089844 394.441406 135.921875 394.457031 C 130.175781 395.015625 125.972656 400.121094 126.519531 405.867188 Z M 146.328125 600.582031 L 127.671875 405.757812 C 127.183594 400.644531 130.921875 396.105469 136.035156 395.605469 C 136.183594 395.589844 136.332031 395.582031 136.480469 395.574219 C 141.335938 395.347656 145.457031 399.101562 145.683594 403.957031 L 154.828125 600.582031 Z M 146.328125 600.582031 " fill-opacity="1" fill-rule="nonzero"/><path fill="#1d1d35" d="M 141.082031 607.164062 C 140.960938 607.457031 140.621094 607.597656 140.328125 607.476562 C 140.03125 607.355469 139.890625 607.019531 140.011719 606.722656 C 147.636719 588.085938 152.070312 575.0625 153.320312 567.683594 C 153.375 567.371094 153.671875 567.15625 153.988281 567.210938 C 154.300781 567.265625 154.511719 567.5625 154.460938 567.878906 C 153.195312 575.363281 148.734375 588.445312 141.082031 607.164062 Z M 152.898438 541.945312 C 153 542.246094 152.835938 542.574219 152.53125 542.675781 C 152.230469 542.777344 151.902344 542.613281 151.800781 542.3125 C 148.410156 532.195312 141.554688 523.5625 131.21875 516.410156 C 130.957031 516.226562 130.890625 515.867188 131.074219 515.605469 C 131.253906 515.34375 131.617188 515.277344 131.878906 515.457031 C 142.410156 522.75 149.421875 531.578125 152.898438 541.945312 Z M 144.609375 582.914062 C 144.476562 583.207031 144.132812 583.335938 143.84375 583.203125 C 143.550781 583.070312 143.425781 582.730469 143.554688 582.4375 C 144.585938 580.164062 145.277344 578.3125 145.625 576.886719 C 150.421875 557.332031 147.449219 543.042969 138.957031 532.886719 C 138.753906 532.644531 138.785156 532.277344 139.03125 532.074219 C 139.273438 531.867188 139.640625 531.902344 139.84375 532.144531 C 148.578125 542.59375 151.628906 557.261719 146.746094 577.164062 C 146.378906 578.667969 145.664062 580.582031 144.609375 582.914062 Z M 130.988281 396.628906 C 130.949219 396.3125 131.171875 396.023438 131.488281 395.980469 C 131.804688 395.941406 132.09375 396.164062 132.132812 396.480469 C 137.140625 435.730469 155.929688 456.488281 188.585938 458.925781 C 188.90625 458.949219 189.144531 459.226562 189.121094 459.546875 C 189.09375 459.863281 188.820312 460.101562 188.5 460.078125 C 155.257812 457.597656 136.058594 436.390625 130.988281 396.628906 Z M 139.449219 396.03125 C 139.417969 395.714844 139.652344 395.433594 139.96875 395.402344 C 140.285156 395.371094 140.566406 395.605469 140.597656 395.921875 C 143.878906 430.484375 159.503906 448.503906 187.574219 450.570312 C 187.894531 450.59375 188.132812 450.871094 188.109375 451.1875 C 188.085938 451.507812 187.808594 451.746094 187.492188 451.722656 C 158.816406 449.613281 142.78125 431.121094 139.449219 396.03125 Z M 139.449219 396.03125 " fill-opacity="1" fill-rule="nonzero"/><path fill="#1d1d35" d="M 447.035156 89.421875 C 445.542969 89.421875 444.335938 88.039062 444.335938 86.335938 C 444.335938 84.632812 445.542969 83.25 447.035156 83.25 C 448.523438 83.25 449.730469 84.632812 449.730469 86.335938 C 449.730469 88.039062 448.523438 89.421875 447.035156 89.421875 Z M 470.917969 89.421875 C 469.425781 89.421875 468.21875 88.039062 468.21875 86.335938 C 468.21875 84.632812 469.425781 83.25 470.917969 83.25 C 472.40625 83.25 473.613281 84.632812 473.613281 86.335938 C 473.613281 88.039062 472.40625 89.421875 470.917969 89.421875 Z M 441.695312 83.625 C 441.488281 83.871094 441.125 83.898438 440.882812 83.691406 C 440.636719 83.488281 440.609375 83.121094 440.816406 82.878906 C 440.90625 82.769531 441.074219 82.589844 441.300781 82.359375 C 441.683594 81.980469 442.113281 81.601562 442.585938 81.246094 C 443.957031 80.214844 445.390625 79.589844 446.835938 79.589844 C 448.925781 79.589844 450.074219 80.089844 451.230469 81.359375 C 451.410156 81.558594 451.59375 81.777344 451.839844 82.078125 C 451.910156 82.167969 452.351562 82.71875 452.488281 82.886719 C 452.691406 83.132812 452.652344 83.5 452.40625 83.699219 C 452.160156 83.902344 451.796875 83.863281 451.59375 83.617188 C 451.453125 83.445312 451.011719 82.890625 450.941406 82.808594 C 450.710938 82.523438 450.539062 82.320312 450.375 82.136719 C 449.4375 81.109375 448.605469 80.746094 446.835938 80.746094 C 445.683594 80.746094 444.46875 81.277344 443.277344 82.171875 C 442.855469 82.492188 442.464844 82.835938 442.117188 83.179688 C 441.910156 83.386719 441.769531 83.542969 441.695312 83.625 Z M 466.363281 83.609375 C 466.167969 83.859375 465.804688 83.902344 465.550781 83.707031 C 465.300781 83.507812 465.257812 83.144531 465.453125 82.894531 C 465.539062 82.785156 465.695312 82.605469 465.910156 82.375 C 466.265625 81.996094 466.664062 81.617188 467.101562 81.261719 C 468.382812 80.21875 469.726562 79.589844 471.089844 79.589844 C 473.054688 79.589844 474.132812 80.097656 475.214844 81.375 C 475.382812 81.574219 475.554688 81.796875 475.78125 82.09375 C 475.847656 82.183594 476.257812 82.734375 476.386719 82.902344 C 476.578125 83.15625 476.527344 83.519531 476.273438 83.714844 C 476.019531 83.90625 475.65625 83.855469 475.464844 83.601562 C 475.332031 83.425781 474.921875 82.875 474.859375 82.792969 C 474.644531 82.507812 474.484375 82.304688 474.332031 82.121094 C 473.46875 81.101562 472.710938 80.746094 471.089844 80.746094 C 470.039062 80.746094 468.925781 81.269531 467.828125 82.160156 C 467.433594 82.476562 467.074219 82.820312 466.753906 83.164062 C 466.5625 83.371094 466.429688 83.527344 466.363281 83.609375 Z M 462.308594 94.242188 L 466.855469 94.242188 L 461.769531 81.148438 C 461.652344 80.851562 461.800781 80.515625 462.097656 80.398438 C 462.394531 80.28125 462.730469 80.429688 462.847656 80.726562 L 468.238281 94.609375 C 468.386719 94.992188 468.109375 95.398438 467.703125 95.398438 L 462.308594 95.398438 C 461.988281 95.398438 461.730469 95.140625 461.730469 94.820312 C 461.730469 94.5 461.988281 94.242188 462.308594 94.242188 Z M 459.5 102.273438 C 459.21875 102.421875 458.867188 102.316406 458.71875 102.035156 C 458.566406 101.753906 458.671875 101.402344 458.953125 101.253906 C 461.046875 100.128906 463.0625 100.128906 464.921875 101.269531 C 465.195312 101.4375 465.277344 101.792969 465.109375 102.0625 C 464.945312 102.335938 464.589844 102.421875 464.316406 102.253906 C 462.820312 101.339844 461.242188 101.339844 459.5 102.273438 Z M 459.5 102.273438 " fill-opacity="1" fill-rule="evenodd"/><path fill="#ffffff" d="M 34.476562 441.089844 L 65.292969 536.339844 L 217.449219 515.902344 L 217.449219 404.453125 L 67.132812 434.546875 L 65.292969 447.644531 L 55.433594 436.890625 Z M 34.476562 441.089844 " fill-opacity="1" fill-rule="evenodd"/><path fill="#1d1d35" d="M 55.859375 436.148438 C 55.722656 436 55.519531 435.933594 55.320312 435.972656 L 34.363281 440.167969 C 34.023438 440.234375 33.820312 440.582031 33.925781 440.914062 L 64.742188 536.164062 C 64.828125 536.429688 65.09375 536.597656 65.371094 536.558594 L 217.527344 516.121094 C 217.8125 516.082031 218.027344 515.835938 218.027344 515.546875 L 218.027344 404.101562 C 218.027344 403.734375 217.695312 403.460938 217.335938 403.53125 L 67.019531 433.628906 C 66.78125 433.679688 66.597656 433.871094 66.5625 434.117188 L 64.890625 445.996094 Z M 55.230469 437.167969 L 64.867188 447.679688 C 65.195312 448.042969 65.796875 447.855469 65.863281 447.371094 L 67.648438 434.683594 L 216.871094 404.804688 L 216.871094 515.042969 L 65.695312 535.351562 L 35.226562 441.175781 Z M 55.230469 437.167969 " fill-opacity="1" fill-rule="nonzero"/><path fill="#ffffff" d="M 0.578125 706.234375 L 51.808594 706.234375 C 71.992188 653.65625 90.519531 620.828125 107.394531 607.753906 C 108.390625 606.980469 102.445312 598.417969 89.5625 582.0625 C 97.914062 588.671875 103.691406 592.914062 106.894531 594.789062 C 108.402344 595.667969 108.53125 583.070312 107.28125 556.996094 L 121.074219 598.796875 C 126.324219 596.15625 130.332031 594.304688 133.089844 593.246094 C 171.867188 578.332031 203.710938 615.996094 228.621094 706.234375 L 749.421875 706.234375 " fill-opacity="1" fill-rule="evenodd"/><path fill="#1d1d35" d="M 106.605469 595.101562 C 107.152344 595.421875 107.648438 595.125 107.917969 594.546875 C 108.09375 594.171875 108.230469 593.601562 108.339844 592.816406 C 108.550781 591.320312 108.667969 588.996094 108.699219 585.820312 C 108.757812 580.207031 108.542969 571.933594 108.054688 560.996094 L 120.527344 598.792969 C 120.636719 599.128906 121.019531 599.285156 121.332031 599.128906 C 126.570312 596.496094 130.558594 594.652344 133.296875 593.597656 C 171.617188 578.863281 203.234375 616.257812 228.0625 706.203125 C 228.132812 706.457031 228.359375 706.628906 228.621094 706.628906 L 749.421875 706.628906 C 749.742188 706.628906 750 706.371094 750 706.050781 C 750 705.730469 749.742188 705.472656 749.421875 705.472656 L 229.0625 705.472656 C 204.085938 615.25 172.054688 577.457031 132.882812 592.519531 C 130.207031 593.546875 126.386719 595.304688 121.414062 597.792969 L 107.828125 556.628906 C 107.617188 555.992188 106.671875 556.167969 106.703125 556.839844 C 107.328125 569.867188 107.609375 579.523438 107.546875 585.808594 C 107.511719 588.9375 107.394531 591.222656 107.195312 592.65625 C 107.113281 593.246094 107.019531 593.679688 106.917969 593.945312 C 103.695312 592.015625 98.023438 587.839844 89.917969 581.425781 C 89.382812 581 88.683594 581.695312 89.105469 582.234375 C 95.542969 590.402344 100.246094 596.625 103.207031 600.894531 C 104.683594 603.019531 105.722656 604.65625 106.328125 605.800781 C 106.621094 606.347656 106.804688 606.773438 106.886719 607.066406 C 106.902344 607.121094 106.910156 607.167969 106.917969 607.207031 C 90.003906 620.402344 71.527344 653.144531 51.414062 705.472656 L 0.578125 705.472656 C 0.257812 705.472656 0 705.730469 0 706.050781 C 0 706.371094 0.257812 706.628906 0.578125 706.628906 L 51.808594 706.628906 C 52.050781 706.628906 52.265625 706.480469 52.351562 706.257812 C 72.492188 653.773438 90.980469 621.015625 107.75 608.023438 C 108.695312 607.289062 107.535156 605.101562 104.15625 600.238281 C 101.652344 596.628906 97.921875 591.644531 92.964844 585.285156 C 99.335938 590.238281 103.878906 593.507812 106.605469 595.101562 Z M 106.605469 595.101562 " fill-opacity="1" fill-rule="nonzero"/><g clip-path="url(#54cb09fb2a)"><path fill="#1d1d35" d="M 452.988281 26.371094 L 431.101562 26.371094 C 421.269531 26.371094 413.289062 34.300781 413.191406 44.121094 L 400.199219 62.871094 C 399.933594 63.253906 400.207031 63.777344 400.675781 63.777344 L 488.5 63.777344 C 489.011719 63.777344 489.273438 63.164062 488.917969 62.796875 L 470.125 43.296875 C 470 33.925781 462.375 26.371094 452.988281 26.371094 Z M 414.242188 44.632812 C 414.3125 44.535156 414.347656 44.421875 414.347656 44.304688 C 414.347656 35.039062 421.847656 27.527344 431.101562 27.527344 L 452.988281 27.527344 C 461.816406 27.527344 468.972656 34.691406 468.972656 43.53125 C 468.972656 43.679688 469.03125 43.824219 469.132812 43.933594 L 487.140625 62.621094 L 401.777344 62.621094 Z M 414.242188 44.632812 " fill-opacity="1" fill-rule="nonzero"/></g><path fill="#5a5aa5" d="M 469.3125 43.917969 L 413.519531 44.6875 L 409.667969 50.472656 L 475.539062 50.472656 Z M 469.3125 43.917969 " fill-opacity="1" fill-rule="evenodd"/><path fill="#1d1d35" d="M 469.691406 42.953125 L 413.898438 43.722656 C 413.707031 43.726562 413.53125 43.824219 413.425781 43.980469 L 409.574219 49.765625 C 409.316406 50.152344 409.59375 50.664062 410.054688 50.664062 L 475.925781 50.664062 C 476.433594 50.664062 476.691406 50.058594 476.34375 49.6875 L 470.117188 43.132812 C 470.007812 43.015625 469.851562 42.949219 469.691406 42.953125 Z M 474.578125 49.507812 L 411.132812 49.507812 L 414.21875 44.878906 L 469.453125 44.113281 Z M 474.578125 49.507812 " fill-opacity="1" fill-rule="nonzero"/><path fill="#ffffff" d="M 312.980469 691.011719 L 306.433594 722.632812 L 430.46875 722.632812 C 424.78125 710.621094 418.105469 702.265625 410.4375 697.566406 C 402.773438 692.871094 388.777344 690.683594 368.453125 691.011719 L 378.851562 637.023438 L 316.449219 637.40625 L 315.675781 677.898438 Z M 312.980469 691.011719 " fill-opacity="1" fill-rule="evenodd"/><g clip-path="url(#a8cb99358e)"><path fill="#ffffff" d="M 480.546875 686.382812 L 480.546875 723.019531 L 495.957031 722.632812 L 594.570312 722.632812 C 588.882812 710.621094 582.203125 702.265625 574.539062 697.566406 C 566.871094 692.871094 552.875 690.683594 532.550781 691.011719 L 542.179688 637.886719 L 474.769531 637.40625 L 479.777344 677.898438 Z M 480.546875 686.382812 " fill-opacity="1" fill-rule="evenodd"/></g><path fill="#5a5aa5" d="M 315.675781 678.285156 C 321.574219 679.242188 326.199219 682.96875 329.546875 689.46875 C 332.890625 695.96875 334.691406 704.710938 334.9375 715.691406 L 307.972656 715.304688 " fill-opacity="1" fill-rule="evenodd"/><path fill="#5a5aa5" d="M 480.546875 678.285156 C 491.066406 680.785156 498 685.28125 501.347656 691.78125 C 504.695312 698.28125 506.238281 706.253906 505.96875 715.691406 L 480.546875 715.304688 Z M 480.546875 678.285156 " fill-opacity="1" fill-rule="evenodd"/><g clip-path="url(#6b14596cd6)"><path fill="#1d1d35" d="M 334.839844 637.101562 L 339.128906 607.519531 L 329.929688 607.519531 L 329.929688 606.367188 L 339.296875 606.367188 L 341.589844 590.554688 L 333.398438 590.554688 L 333.398438 589.398438 L 378.082031 589.398438 L 378.082031 590.554688 L 369.125 590.554688 L 366.195312 606.367188 L 374.617188 606.367188 L 374.617188 607.519531 L 365.980469 607.519531 L 360.53125 636.945312 L 379.554688 636.828125 L 371.03125 681.058594 L 373.972656 672.988281 C 374.097656 672.648438 374.253906 672.324219 374.433594 672.011719 C 376.105469 669.164062 379.765625 668.210938 382.613281 669.882812 C 383.09375 670.164062 383.527344 670.519531 383.894531 670.933594 C 385.828125 673.117188 385.625 676.453125 383.441406 678.382812 L 369.746094 690.511719 C 372.324219 689.871094 378.652344 688.246094 387.953125 685.824219 C 388.261719 685.746094 388.578125 685.929688 388.65625 686.238281 C 388.738281 686.546875 388.550781 686.863281 388.242188 686.941406 C 381.46875 688.707031 376.585938 689.96875 373.359375 690.789062 C 391.148438 690.871094 403.597656 693.082031 410.742188 697.460938 C 418.515625 702.222656 425.261719 710.664062 430.992188 722.769531 L 431.382812 723.597656 L 305.722656 723.597656 L 312.417969 691.28125 L 315.101562 678.222656 L 315.882812 637.21875 Z M 336.007812 637.09375 L 347.183594 637.027344 L 351.699219 607.519531 L 340.296875 607.519531 Z M 348.351562 637.019531 L 359.351562 636.949219 L 364.804688 607.519531 L 352.867188 607.519531 Z M 368.941406 691.96875 C 368.890625 691.976562 368.839844 691.980469 368.789062 691.976562 L 355.757812 692.359375 C 355.4375 692.371094 355.171875 692.121094 355.164062 691.800781 C 355.152344 691.480469 355.402344 691.214844 355.722656 691.203125 L 367.359375 690.863281 L 353.269531 678.382812 C 351.089844 676.453125 350.886719 673.117188 352.820312 670.933594 C 353.1875 670.519531 353.617188 670.164062 354.097656 669.882812 C 356.945312 668.210938 360.605469 669.164062 362.277344 672.011719 C 362.460938 672.324219 362.617188 672.648438 362.738281 672.988281 L 368.355469 688.394531 L 368.535156 687.898438 L 378.152344 637.988281 L 317.015625 638.367188 L 316.265625 677.851562 C 328.257812 681.417969 335.136719 693.761719 335.507812 714.726562 L 425.363281 714.726562 C 420.8125 707.300781 415.738281 701.875 410.136719 698.445312 C 402.648438 693.859375 388.902344 691.683594 368.941406 691.96875 Z M 369.65625 688.207031 L 369.457031 689.222656 L 382.675781 677.519531 C 384.378906 676.011719 384.539062 673.40625 383.027344 671.699219 C 382.742188 671.375 382.402344 671.097656 382.03125 670.878906 C 379.734375 669.53125 376.78125 670.300781 375.433594 672.597656 C 375.285156 672.847656 375.160156 673.109375 375.058594 673.382812 Z M 426.058594 715.882812 L 308.5 715.882812 L 307.144531 722.441406 L 429.554688 722.441406 C 428.425781 720.113281 427.261719 717.925781 426.058594 715.882812 Z M 308.738281 714.726562 L 334.351562 714.726562 C 333.984375 694.335938 327.414062 682.480469 316.117188 679.015625 L 313.546875 691.515625 Z M 361.652344 673.382812 C 361.554688 673.109375 361.429688 672.847656 361.28125 672.597656 C 359.933594 670.300781 356.980469 669.53125 354.683594 670.878906 C 354.308594 671.097656 353.972656 671.375 353.683594 671.699219 C 352.175781 673.40625 352.332031 676.011719 354.039062 677.519531 L 367.511719 689.453125 Z M 367.949219 590.554688 L 355.464844 590.554688 L 353.046875 606.367188 L 365.019531 606.367188 Z M 354.296875 590.554688 L 342.757812 590.554688 L 340.464844 606.367188 L 351.875 606.367188 Z M 354.296875 590.554688 " fill-opacity="1" fill-rule="nonzero"/></g><path fill="#5a5aa5" d="M 310.671875 225.550781 L 297.957031 225.550781 L 311.824219 203.570312 " fill-opacity="1" fill-rule="evenodd"/><g clip-path="url(#74b7ecdf9a)"><path fill="#1d1d35" d="M 488.308594 636.910156 L 484.046875 607.519531 L 476.695312 607.519531 L 476.695312 606.367188 L 483.878906 606.367188 L 481.589844 590.554688 L 474.382812 590.554688 L 474.382812 589.398438 L 520.992188 589.398438 L 520.992188 590.554688 L 511.039062 590.554688 L 512.632812 606.367188 L 521.378906 606.367188 L 521.378906 607.519531 L 512.75 607.519531 L 515.722656 637.066406 L 542.867188 637.21875 L 534.078125 688.167969 L 539.613281 672.988281 C 539.738281 672.648438 539.890625 672.324219 540.074219 672.011719 C 541.746094 669.164062 545.40625 668.210938 548.253906 669.882812 C 548.734375 670.164062 549.164062 670.519531 549.535156 670.933594 C 551.464844 673.117188 551.261719 676.453125 549.082031 678.382812 L 536 689.96875 C 539.257812 689.140625 544.734375 687.726562 552.050781 685.824219 C 552.359375 685.746094 552.675781 685.929688 552.753906 686.238281 C 552.835938 686.546875 552.648438 686.863281 552.339844 686.941406 C 545.570312 688.707031 540.6875 689.96875 537.464844 690.789062 C 555.453125 690.839844 568.03125 693.054688 575.222656 697.460938 C 583 702.222656 589.746094 710.664062 595.476562 722.769531 L 595.867188 723.597656 L 479.972656 723.597656 L 479.96875 723.023438 L 479.589844 678.363281 L 474.109375 636.828125 Z M 489.476562 636.914062 L 501.082031 636.980469 L 498.46875 607.519531 L 485.214844 607.519531 Z M 502.242188 636.988281 L 514.558594 637.058594 L 511.585938 607.519531 L 499.628906 607.519531 Z M 480.664062 677.71875 C 497.398438 681.09375 506.039062 693.488281 506.535156 714.726562 L 589.847656 714.726562 C 585.296875 707.300781 580.21875 701.875 574.621094 698.445312 C 567.160156 693.875 553.488281 691.699219 533.640625 691.964844 C 533.566406 691.984375 533.488281 691.984375 533.410156 691.96875 C 533.277344 691.96875 533.136719 691.972656 533 691.972656 C 532.964844 691.980469 532.925781 691.980469 532.886719 691.976562 L 519.855469 692.359375 C 519.535156 692.371094 519.269531 692.121094 519.261719 691.800781 C 519.25 691.480469 519.503906 691.214844 519.820312 691.203125 L 531.460938 690.863281 L 517.371094 678.382812 C 515.1875 676.453125 514.984375 673.117188 516.917969 670.933594 C 517.285156 670.519531 517.71875 670.164062 518.199219 669.882812 C 521.042969 668.210938 524.707031 669.164062 526.375 672.011719 C 526.558594 672.324219 526.714844 672.648438 526.835938 672.988281 L 532.734375 689.160156 L 541.496094 638.367188 L 475.429688 637.988281 Z M 480.746094 678.914062 L 481.054688 714.726562 L 505.382812 714.726562 C 504.890625 694.140625 496.695312 682.257812 480.746094 678.914062 Z M 590.542969 715.882812 L 481.0625 715.882812 L 481.121094 722.441406 L 594.035156 722.441406 C 592.910156 720.113281 591.742188 717.925781 590.542969 715.882812 Z M 525.75 673.382812 C 525.652344 673.109375 525.527344 672.847656 525.378906 672.597656 C 524.03125 670.300781 521.078125 669.53125 518.78125 670.878906 C 518.410156 671.097656 518.070312 671.375 517.78125 671.699219 C 516.273438 673.40625 516.433594 676.011719 518.136719 677.519531 L 531.609375 689.453125 Z M 540.699219 673.382812 L 534.839844 689.453125 L 548.316406 677.519531 C 550.019531 676.011719 550.175781 673.40625 548.667969 671.699219 C 548.378906 671.375 548.042969 671.097656 547.667969 670.878906 C 545.371094 669.53125 542.417969 670.300781 541.070312 672.597656 C 540.921875 672.847656 540.800781 673.109375 540.699219 673.382812 Z M 509.878906 590.554688 L 498.128906 590.554688 L 499.527344 606.367188 L 511.46875 606.367188 Z M 496.96875 590.554688 L 482.753906 590.554688 L 485.046875 606.367188 L 498.367188 606.367188 Z M 496.96875 590.554688 " fill-opacity="1" fill-rule="nonzero"/></g><path fill="#5a5aa5" d="M 112.410156 482.339844 L 113.546875 489.515625 L 106.941406 490.5625 L 107.792969 495.945312 L 99.300781 497.292969 L 98.449219 491.90625 L 75.144531 495.597656 L 74.007812 488.421875 L 94.066406 464.230469 L 102.558594 462.886719 L 105.804688 483.382812 Z M 83.160156 486.96875 L 97.3125 484.730469 L 95.414062 472.730469 Z M 136.035156 491.957031 C 122.917969 494.035156 115.734375 488.976562 113.992188 477.972656 C 112.253906 467.015625 117.53125 460.03125 130.648438 457.953125 C 143.71875 455.882812 150.949219 460.933594 152.675781 471.84375 C 154.414062 482.804688 149.101562 489.890625 136.035156 491.957031 Z M 134.90625 484.828125 C 142.359375 483.644531 145.164062 479.378906 144.183594 473.191406 C 143.210938 467.050781 139.234375 463.902344 131.777344 465.085938 C 124.324219 466.265625 121.503906 470.441406 122.484375 476.628906 C 123.46875 482.863281 127.449219 486.007812 134.90625 484.828125 Z M 194.5 469.335938 L 195.636719 476.515625 L 189.03125 477.5625 L 189.882812 482.945312 L 181.390625 484.289062 L 180.539062 478.90625 L 157.234375 482.597656 L 156.097656 475.417969 L 176.15625 451.230469 L 184.648438 449.886719 L 187.894531 470.382812 Z M 165.25 473.96875 L 179.402344 471.726562 L 177.503906 459.730469 Z M 165.25 473.96875 " fill-opacity="1" fill-rule="nonzero"/><path fill="#1d1d35" d="M 113.257812 481.296875 L 114.578125 489.617188 L 107.972656 490.664062 L 108.824219 496.046875 L 99.191406 497.574219 L 98.339844 492.191406 L 75.03125 495.878906 L 73.765625 487.875 L 94.128906 463.316406 L 103.40625 461.847656 L 106.65625 482.34375 Z M 105.695312 483.667969 L 102.445312 463.167969 L 94.742188 464.390625 L 74.988281 488.207031 L 75.992188 494.558594 L 99.300781 490.867188 L 100.152344 496.253906 L 107.503906 495.089844 L 106.648438 489.703125 L 113.253906 488.65625 L 112.296875 482.621094 Z M 82.0625 487.410156 L 96.15625 471.03125 L 98.34375 484.832031 Z M 97.019531 483.871094 L 95.40625 473.675781 L 84.996094 485.773438 Z M 136.492188 492.148438 C 123.308594 494.238281 115.617188 489.226562 113.789062 477.683594 C 111.96875 466.191406 117.738281 459.09375 130.925781 457.003906 C 144.070312 454.921875 151.804688 459.929688 153.617188 471.375 C 155.4375 482.875 149.632812 490.070312 136.492188 492.148438 Z M 136.3125 491.007812 C 148.84375 489.023438 154.191406 482.394531 152.476562 471.554688 C 150.765625 460.769531 143.644531 456.160156 131.109375 458.144531 C 118.523438 460.136719 113.214844 466.671875 114.929688 477.503906 C 116.65625 488.390625 123.734375 493 136.3125 491.007812 Z M 135.363281 485.019531 C 127.832031 486.210938 123.355469 483.113281 122.28125 476.339844 C 121.21875 469.613281 124.519531 465.328125 132.058594 464.136719 C 139.574219 462.945312 144.0625 466.027344 145.125 472.71875 C 146.191406 479.464844 142.878906 483.828125 135.363281 485.019531 Z M 135.183594 483.878906 C 142.078125 482.785156 144.949219 479.003906 143.984375 472.902344 C 143.023438 466.851562 139.136719 464.183594 132.238281 465.277344 C 125.316406 466.371094 122.460938 470.078125 123.421875 476.15625 C 124.394531 482.292969 128.269531 484.972656 135.183594 483.878906 Z M 195.347656 468.296875 L 196.664062 476.617188 L 190.0625 477.664062 L 190.914062 483.046875 L 181.28125 484.574219 L 180.429688 479.1875 L 157.121094 482.878906 L 155.855469 474.871094 L 176.21875 450.3125 L 185.496094 448.84375 L 188.742188 469.34375 Z M 187.78125 470.664062 L 184.535156 450.167969 L 176.832031 451.386719 L 157.078125 475.207031 L 158.082031 481.558594 L 181.390625 477.867188 L 182.242188 483.25 L 189.589844 482.085938 L 188.738281 476.703125 L 195.34375 475.65625 L 194.386719 469.617188 Z M 164.152344 474.40625 L 178.246094 458.03125 L 180.433594 471.828125 Z M 179.109375 470.867188 L 177.496094 460.675781 L 167.082031 472.773438 Z M 179.109375 470.867188 " fill-opacity="1" fill-rule="nonzero"/><path fill="#1d1d35" d="M 311.675781 202.949219 C 311.746094 202.6875 311.804688 202.441406 311.855469 202.21875 L 312.484375 188.878906 C 313.53125 166.773438 331.742188 149.386719 353.851562 149.386719 L 397.339844 149.386719 L 397.339844 150.546875 L 353.851562 150.546875 C 332.359375 150.546875 314.65625 167.445312 313.640625 188.9375 L 313.457031 192.8125 C 315.5 184.96875 319.4375 177.957031 325.277344 171.929688 C 334.082031 162.847656 344.988281 167.375 357.75 185.105469 C 357.9375 185.367188 357.878906 185.726562 357.617188 185.914062 C 357.359375 186.101562 357 186.042969 356.8125 185.785156 C 344.40625 168.550781 334.253906 164.335938 326.109375 172.734375 C 318.441406 180.644531 314.140625 190.285156 313.171875 201.308594 C 313.144531 201.613281 313.089844 201.964844 313.003906 202.367188 L 311.246094 239.460938 L 310.09375 239.40625 L 310.742188 225.742188 L 298.34375 225.742188 C 297.890625 225.742188 297.613281 225.242188 297.855469 224.855469 Z M 310.796875 224.585938 L 311.71875 205.046875 L 299.390625 224.585938 Z M 310.796875 224.585938 " fill-opacity="1" fill-rule="nonzero"/><path fill="#1d1d35" d="M 482.210938 254.726562 C 481.890625 254.714844 481.644531 254.445312 481.65625 254.125 C 481.667969 253.804688 481.933594 253.558594 482.253906 253.570312 C 486.511719 253.730469 488.53125 251.285156 488.445312 245.9375 C 488.359375 240.566406 486.589844 238.066406 483.109375 238.125 C 482.789062 238.132812 482.527344 237.878906 482.519531 237.558594 C 482.515625 237.238281 482.769531 236.972656 483.089844 236.96875 C 487.324219 236.894531 489.507812 239.980469 489.601562 245.921875 C 489.699219 251.882812 487.191406 254.914062 482.210938 254.726562 Z M 480.980469 295.414062 C 480.660156 295.386719 480.425781 295.105469 480.453125 294.789062 C 480.484375 294.46875 480.765625 294.234375 481.082031 294.265625 C 485.324219 294.648438 487.472656 292.3125 487.664062 286.96875 C 487.859375 281.597656 486.226562 279.007812 482.742188 278.886719 C 482.425781 278.875 482.175781 278.605469 482.1875 278.289062 C 482.199219 277.96875 482.464844 277.71875 482.785156 277.730469 C 487.019531 277.878906 489.035156 281.074219 488.820312 287.007812 C 488.601562 292.96875 485.941406 295.867188 480.980469 295.414062 Z M 455.71875 340.441406 C 455.429688 340.3125 455.292969 339.972656 455.421875 339.679688 C 455.550781 339.386719 455.890625 339.253906 456.183594 339.382812 C 460.113281 341.101562 462.730469 339.972656 464.3125 335.863281 C 465.910156 331.726562 465.074219 329.175781 461.792969 327.917969 C 461.496094 327.804688 461.347656 327.46875 461.460938 327.171875 C 461.578125 326.871094 461.910156 326.722656 462.210938 326.835938 C 466.136719 328.34375 467.203125 331.589844 465.390625 336.28125 C 463.574219 341 460.253906 342.429688 455.71875 340.441406 Z M 414.117188 186.453125 L 415.234375 186.75 C 413.125 194.664062 408.726562 199.335938 402.078125 200.667969 L 401.851562 199.53125 C 408.042969 198.292969 412.117188 193.964844 414.117188 186.453125 Z M 414.117188 186.453125 " fill-opacity="1" fill-rule="nonzero"/><path fill="#1d1d35" d="M 349.402344 201.792969 L 350.945312 207.574219 C 351.027344 207.882812 351.34375 208.066406 351.652344 207.984375 C 351.960938 207.902344 352.144531 207.585938 352.0625 207.277344 L 350.519531 201.492188 C 350.4375 201.183594 350.121094 201 349.8125 201.082031 C 349.503906 201.164062 349.320312 201.480469 349.402344 201.792969 Z M 349.402344 201.792969 " fill-opacity="1" fill-rule="nonzero"/><path fill="#1d1d35" d="M 349.832031 202.203125 L 354.839844 203.363281 C 355.152344 203.433594 355.460938 203.242188 355.53125 202.929688 C 355.605469 202.617188 355.410156 202.304688 355.101562 202.234375 L 350.089844 201.078125 C 349.78125 201.007812 349.46875 201.199219 349.398438 201.511719 C 349.328125 201.824219 349.519531 202.132812 349.832031 202.203125 Z M 349.832031 202.203125 " fill-opacity="1" fill-rule="nonzero"/><path fill="#1d1d35" d="M 567.273438 205.867188 C 563.378906 201.164062 556.605469 200.667969 551.023438 204.34375 C 548.847656 205.777344 547.261719 207.816406 546.515625 210.148438 C 544.636719 216.023438 552.019531 231.039062 568.667969 255.570312 C 568.847656 255.835938 569.207031 255.902344 569.46875 255.722656 C 569.734375 255.542969 569.800781 255.183594 569.621094 254.921875 C 553.246094 230.785156 545.90625 215.855469 547.617188 210.5 C 548.28125 208.425781 549.699219 206.597656 551.660156 205.308594 C 556.777344 201.9375 562.890625 202.386719 566.386719 206.605469 C 566.589844 206.851562 566.953125 206.886719 567.199219 206.683594 C 567.445312 206.476562 567.480469 206.113281 567.273438 205.867188 Z M 567.273438 205.867188 " fill-opacity="1" fill-rule="nonzero"/><g clip-path="url(#417d54a701)"><path fill="#efefed" d="M 397.746094 472.40625 L 397.746094 473.242188 C 404.117188 475.105469 404.804688 478.898438 404.804688 480.441406 L 405.671875 480.441406 C 405.671875 478.917969 405.097656 475.457031 400.300781 473.257812 L 412.9375 473.257812 L 412.9375 472.390625 L 400.300781 472.390625 C 405.097656 470.191406 405.671875 466.730469 405.671875 465.207031 L 404.804688 465.207031 C 404.804688 466.75 404.117188 470.542969 397.746094 472.40625 Z M 397.746094 472.40625 " fill-opacity="1" fill-rule="nonzero"/></g></svg>