<svg xmlns="http://www.w3.org/2000/svg" xmlns:xlink="http://www.w3.org/1999/xlink" width="1200" zoomAndPan="magnify" viewBox="0 0 900 449.999984" height="600" preserveAspectRatio="xMidYMid meet" version="1.0"><defs><g/><clipPath id="f72e5f4a1f"><path d="M 3 27.0625 L 454.5 27.0625 L 454.5 405.0625 L 3 405.0625 Z M 3 27.0625 " clip-rule="nonzero"/></clipPath></defs><g clip-path="url(#f72e5f4a1f)"><path fill="#2b2b2b" d="M 304.1875 216.269531 C 378.277344 216.269531 383.5 140.757812 351.917969 115.347656 C 339.808594 105.613281 323.421875 100.863281 302.527344 100.863281 L 254.796875 100.863281 C 245.773438 100.863281 238.414062 108.222656 238.414062 117.246094 L 238.414062 199.882812 C 238.414062 208.910156 245.773438 216.269531 254.796875 216.269531 Z M 24.222656 318.617188 C 31.34375 318.617188 43.691406 316.714844 43.691406 327.875 C 43.691406 338.800781 31.109375 337.136719 24.222656 337.136719 C 12.109375 337.136719 12.109375 318.617188 24.222656 318.617188 Z M 143.902344 392.230469 L 187.832031 392.230469 C 199.941406 392.230469 199.941406 373.945312 187.832031 373.945312 L 103.535156 373.945312 C 91.421875 373.945312 91.421875 355.660156 103.535156 355.660156 C 125.378906 355.660156 146.988281 355.660156 168.835938 355.660156 C 180.945312 355.660156 180.945312 337.375 168.835938 337.375 L 128.941406 337.375 C 116.832031 337.375 116.832031 319.089844 128.941406 319.089844 C 139.390625 319.089844 150.078125 319.089844 160.523438 319.089844 C 172.636719 319.089844 172.636719 300.804688 160.523438 300.804688 L 104.957031 300.804688 C 92.847656 300.804688 92.847656 282.523438 104.957031 282.523438 L 159.574219 282.523438 C 171.449219 282.523438 172.398438 264.238281 158.863281 264.238281 L 130.367188 264.238281 C 118.257812 264.238281 118.257812 245.953125 130.367188 245.953125 C 161 245.953125 191.632812 245.953125 222.265625 245.953125 C 234.375 245.953125 234.375 227.667969 222.265625 227.667969 L 99.972656 227.667969 C 87.859375 227.667969 87.859375 209.382812 99.972656 209.382812 L 139.390625 209.382812 C 151.5 209.382812 151.5 191.097656 139.390625 191.097656 L 82.160156 191.097656 C 70.050781 191.097656 70.050781 172.8125 82.160156 172.8125 C 115.882812 172.8125 149.839844 172.8125 183.558594 172.8125 C 195.667969 172.8125 195.667969 154.53125 183.558594 154.53125 L 127.515625 154.53125 C 115.40625 154.53125 115.40625 136.246094 127.515625 136.246094 L 171.210938 136.246094 C 183.320312 136.246094 183.320312 117.960938 171.210938 117.960938 L 117.304688 118.199219 C 105.195312 118.199219 105.195312 99.914062 117.304688 99.914062 L 206.117188 100.152344 C 218.226562 100.152344 218.226562 81.867188 206.117188 81.867188 L 115.644531 82.101562 C 103.535156 82.101562 103.535156 63.820312 115.644531 63.820312 L 159.8125 63.820312 C 171.921875 63.820312 171.449219 46.484375 161.472656 45.535156 C 149.839844 45.535156 138.203125 45.535156 126.328125 45.535156 C 114.21875 45.535156 114.21875 27.25 126.328125 27.25 C 187.359375 27.25 248.386719 27.25 309.652344 27.25 C 392.761719 27.25 454.265625 73.554688 454.265625 159.042969 C 454.265625 248.566406 384.453125 291.78125 301.339844 291.78125 L 254.558594 291.78125 C 245.535156 291.78125 238.175781 299.144531 238.175781 308.167969 L 238.175781 388.667969 C 238.175781 397.691406 230.8125 405.050781 221.789062 405.050781 L 135.117188 405.050781 C 133.691406 397.929688 137.964844 392.230469 143.902344 392.230469 Z M 33.007812 171.863281 L 54.617188 171.863281 C 66.726562 171.863281 66.726562 190.148438 54.617188 190.148438 L 33.007812 190.148438 C 20.898438 190.148438 20.898438 171.863281 33.007812 171.863281 Z M 71.476562 62.15625 L 84.535156 62.15625 C 96.648438 62.15625 96.648438 80.441406 84.535156 80.441406 L 71.476562 80.441406 C 59.367188 80.441406 59.367188 62.15625 71.476562 62.15625 Z M 58.890625 355.421875 C 66.015625 355.421875 78.363281 353.523438 78.363281 364.683594 C 78.363281 375.605469 65.777344 373.945312 58.890625 373.945312 C 46.78125 373.707031 46.78125 355.421875 58.890625 355.421875 Z M 79.789062 245.238281 L 102.347656 245.238281 C 114.457031 245.238281 114.457031 263.523438 102.347656 263.523438 L 79.789062 263.523438 C 67.914062 263.523438 67.914062 245.238281 79.789062 245.238281 Z M 12.109375 98.488281 L 88.335938 98.488281 C 100.445312 98.488281 100.445312 116.773438 88.335938 116.773438 L 12.109375 116.773438 C 0 116.773438 0 98.488281 12.109375 98.488281 Z M 60.316406 318.617188 L 99.257812 318.617188 C 111.371094 318.617188 111.371094 336.902344 99.257812 336.902344 L 60.316406 336.902344 C 48.203125 337.136719 48.203125 318.617188 60.316406 318.617188 Z M 72.1875 135.058594 L 94.746094 135.058594 C 106.859375 135.058594 106.859375 153.34375 94.746094 153.34375 L 72.1875 153.34375 C 60.078125 153.34375 60.078125 135.058594 72.1875 135.058594 Z M 72.1875 135.058594 " fill-opacity="1" fill-rule="evenodd"/></g><g fill="#2b2b2b" fill-opacity="1"><g transform="translate(270.458954, 403.35972)"><g><path d="M 53.359375 1.75 C 43.703125 1.75 35.382812 -0.0507812 28.40625 -3.65625 C 21.4375 -7.257812 16.0625 -12.375 12.28125 -19 C 8.507812 -25.625 6.625 -33.472656 6.625 -42.546875 C 6.625 -51.378906 8.453125 -59.109375 12.109375 -65.734375 C 15.773438 -72.359375 20.832031 -77.554688 27.28125 -81.328125 C 33.738281 -85.109375 41.09375 -87 49.34375 -87 C 55.382812 -87 60.816406 -86.007812 65.640625 -84.03125 C 70.460938 -82.0625 74.585938 -79.21875 78.015625 -75.5 C 81.453125 -71.78125 84.070312 -67.273438 85.875 -61.984375 C 87.675781 -56.691406 88.578125 -50.734375 88.578125 -44.109375 C 88.578125 -42.015625 87.847656 -40.414062 86.390625 -39.3125 C 84.941406 -38.207031 82.878906 -37.65625 80.203125 -37.65625 L 24.234375 -37.65625 L 24.234375 -50.21875 L 73.234375 -50.21875 L 70.4375 -47.59375 C 70.4375 -52.945312 69.648438 -57.425781 68.078125 -61.03125 C 66.515625 -64.632812 64.25 -67.394531 61.28125 -69.3125 C 58.320312 -71.226562 54.632812 -72.1875 50.21875 -72.1875 C 45.332031 -72.1875 41.175781 -71.050781 37.75 -68.78125 C 34.320312 -66.519531 31.707031 -63.320312 29.90625 -59.1875 C 28.101562 -55.0625 27.203125 -50.15625 27.203125 -44.46875 L 27.203125 -43.234375 C 27.203125 -33.703125 29.4375 -26.582031 33.90625 -21.875 C 38.382812 -17.175781 44.984375 -14.828125 53.703125 -14.828125 C 56.722656 -14.828125 60.117188 -15.203125 63.890625 -15.953125 C 67.671875 -16.710938 71.25 -18.019531 74.625 -19.875 C 77.0625 -21.269531 79.207031 -21.878906 81.0625 -21.703125 C 82.925781 -21.535156 84.410156 -20.867188 85.515625 -19.703125 C 86.617188 -18.535156 87.285156 -17.109375 87.515625 -15.421875 C 87.753906 -13.742188 87.4375 -12.03125 86.5625 -10.28125 C 85.695312 -8.539062 84.21875 -7.03125 82.125 -5.75 C 78.050781 -3.195312 73.367188 -1.304688 68.078125 -0.078125 C 62.796875 1.140625 57.890625 1.75 53.359375 1.75 Z M 53.359375 1.75 "/></g></g></g><g fill="#2b2b2b" fill-opacity="1"><g transform="translate(364.961134, 403.35972)"><g><path d="M 50.390625 1.75 C 42.835938 1.75 36.53125 0.472656 31.46875 -2.078125 C 26.414062 -4.640625 22.664062 -8.390625 20.21875 -13.328125 C 17.78125 -18.273438 16.5625 -24.410156 16.5625 -31.734375 L 16.5625 -68.875 L 7.5 -68.875 C 4.707031 -68.875 2.554688 -69.597656 1.046875 -71.046875 C -0.460938 -72.503906 -1.21875 -74.507812 -1.21875 -77.0625 C -1.21875 -79.738281 -0.460938 -81.773438 1.046875 -83.171875 C 2.554688 -84.566406 4.707031 -85.265625 7.5 -85.265625 L 16.5625 -85.265625 L 16.5625 -101.125 C 16.5625 -104.726562 17.519531 -107.457031 19.4375 -109.3125 C 21.351562 -111.175781 24.054688 -112.109375 27.546875 -112.109375 C 31.035156 -112.109375 33.707031 -111.175781 35.5625 -109.3125 C 37.425781 -107.457031 38.359375 -104.726562 38.359375 -101.125 L 38.359375 -85.265625 L 56.84375 -85.265625 C 59.632812 -85.265625 61.785156 -84.566406 63.296875 -83.171875 C 64.804688 -81.773438 65.5625 -79.738281 65.5625 -77.0625 C 65.5625 -74.507812 64.804688 -72.503906 63.296875 -71.046875 C 61.785156 -69.597656 59.632812 -68.875 56.84375 -68.875 L 38.359375 -68.875 L 38.359375 -32.953125 C 38.359375 -27.367188 39.578125 -23.179688 42.015625 -20.390625 C 44.460938 -17.609375 48.414062 -16.21875 53.875 -16.21875 C 55.851562 -16.21875 57.597656 -16.390625 59.109375 -16.734375 C 60.617188 -17.085938 61.957031 -17.320312 63.125 -17.4375 C 64.507812 -17.550781 65.664062 -17.113281 66.59375 -16.125 C 67.53125 -15.132812 68 -13.128906 68 -10.109375 C 68 -7.785156 67.617188 -5.722656 66.859375 -3.921875 C 66.109375 -2.117188 64.742188 -0.867188 62.765625 -0.171875 C 61.253906 0.285156 59.273438 0.71875 56.828125 1.125 C 54.390625 1.539062 52.242188 1.75 50.390625 1.75 Z M 50.390625 1.75 "/></g></g></g><g fill="#2b2b2b" fill-opacity="1"><g transform="translate(431.91471, 403.35972)"><g/></g></g><g fill="#2b2b2b" fill-opacity="1"><g transform="translate(479.16581, 403.35972)"><g><path d="M 55.796875 1.75 C 50.679688 1.75 45.566406 1.367188 40.453125 0.609375 C 35.335938 -0.140625 30.507812 -1.300781 25.96875 -2.875 C 21.4375 -4.445312 17.375 -6.394531 13.78125 -8.71875 C 11.6875 -10.113281 10.226562 -11.796875 9.40625 -13.765625 C 8.59375 -15.742188 8.332031 -17.691406 8.625 -19.609375 C 8.914062 -21.535156 9.671875 -23.222656 10.890625 -24.671875 C 12.117188 -26.117188 13.660156 -27.015625 15.515625 -27.359375 C 17.378906 -27.710938 19.414062 -27.195312 21.625 -25.8125 C 26.738281 -22.78125 32.140625 -20.566406 37.828125 -19.171875 C 43.523438 -17.785156 49.515625 -17.09375 55.796875 -17.09375 C 64.972656 -17.09375 71.65625 -18.628906 75.84375 -21.703125 C 80.03125 -24.785156 82.125 -28.769531 82.125 -33.65625 C 82.125 -37.71875 80.640625 -40.910156 77.671875 -43.234375 C 74.710938 -45.566406 69.628906 -47.488281 62.421875 -49 L 43.234375 -53 C 32.191406 -55.332031 23.96875 -59.257812 18.5625 -64.78125 C 13.164062 -70.300781 10.46875 -77.59375 10.46875 -86.65625 C 10.46875 -92.351562 11.628906 -97.523438 13.953125 -102.171875 C 16.273438 -106.828125 19.554688 -110.835938 23.796875 -114.203125 C 28.046875 -117.578125 33.101562 -120.164062 38.96875 -121.96875 C 44.84375 -123.769531 51.320312 -124.671875 58.40625 -124.671875 C 65.382812 -124.671875 72.007812 -123.796875 78.28125 -122.046875 C 84.5625 -120.304688 90.203125 -117.75 95.203125 -114.375 C 97.054688 -113.101562 98.300781 -111.535156 98.9375 -109.671875 C 99.582031 -107.804688 99.726562 -105.972656 99.375 -104.171875 C 99.03125 -102.378906 98.21875 -100.84375 96.9375 -99.5625 C 95.664062 -98.28125 94.066406 -97.519531 92.140625 -97.28125 C 90.222656 -97.050781 88.046875 -97.632812 85.609375 -99.03125 C 81.304688 -101.476562 76.945312 -103.222656 72.53125 -104.265625 C 68.113281 -105.316406 63.347656 -105.84375 58.234375 -105.84375 C 52.890625 -105.84375 48.296875 -105.082031 44.453125 -103.5625 C 40.617188 -102.050781 37.6875 -99.929688 35.65625 -97.203125 C 33.625 -94.472656 32.609375 -91.25 32.609375 -87.53125 C 32.609375 -83.34375 34 -80 36.78125 -77.5 C 39.570312 -75 44.34375 -73.050781 51.09375 -71.65625 L 70.09375 -67.65625 C 81.601562 -65.207031 90.175781 -61.367188 95.8125 -56.140625 C 101.445312 -50.910156 104.265625 -43.9375 104.265625 -35.21875 C 104.265625 -29.632812 103.128906 -24.578125 100.859375 -20.046875 C 98.597656 -15.515625 95.34375 -11.617188 91.09375 -8.359375 C 86.851562 -5.109375 81.769531 -2.609375 75.84375 -0.859375 C 69.914062 0.878906 63.234375 1.75 55.796875 1.75 Z M 55.796875 1.75 "/></g></g></g><g fill="#2b2b2b" fill-opacity="1"><g transform="translate(589.185884, 403.35972)"><g><path d="M 22.140625 1.390625 C 18.648438 1.390625 15.972656 0.429688 14.109375 -1.484375 C 12.253906 -3.398438 11.328125 -6.160156 11.328125 -9.765625 L 11.328125 -113.328125 C 11.328125 -116.929688 12.253906 -119.660156 14.109375 -121.515625 C 15.972656 -123.378906 18.648438 -124.3125 22.140625 -124.3125 C 25.628906 -124.3125 28.332031 -123.378906 30.25 -121.515625 C 32.164062 -119.660156 33.125 -116.929688 33.125 -113.328125 L 33.125 -68.171875 L 30.6875 -68.171875 C 33.238281 -74.335938 37.21875 -79.015625 42.625 -82.203125 C 48.03125 -85.398438 54.164062 -87 61.03125 -87 C 67.882812 -87 73.519531 -85.71875 77.9375 -83.15625 C 82.351562 -80.601562 85.664062 -76.738281 87.875 -71.5625 C 90.082031 -66.394531 91.1875 -59.859375 91.1875 -51.953125 L 91.1875 -9.765625 C 91.1875 -6.160156 90.253906 -3.398438 88.390625 -1.484375 C 86.535156 0.429688 83.863281 1.390625 80.375 1.390625 C 76.894531 1.390625 74.191406 0.429688 72.265625 -1.484375 C 70.347656 -3.398438 69.390625 -6.160156 69.390625 -9.765625 L 69.390625 -50.90625 C 69.390625 -57.53125 68.140625 -62.351562 65.640625 -65.375 C 63.140625 -68.40625 59.273438 -69.921875 54.046875 -69.921875 C 47.660156 -69.921875 42.578125 -67.914062 38.796875 -63.90625 C 35.015625 -59.894531 33.125 -54.578125 33.125 -47.953125 L 33.125 -9.765625 C 33.125 -2.328125 29.460938 1.390625 22.140625 1.390625 Z M 22.140625 1.390625 "/></g></g></g><g fill="#2b2b2b" fill-opacity="1"><g transform="translate(691.185466, 403.35972)"><g><path d="M 50.21875 1.75 C 41.382812 1.75 33.710938 -0.0507812 27.203125 -3.65625 C 20.691406 -7.257812 15.632812 -12.40625 12.03125 -19.09375 C 8.425781 -25.78125 6.625 -33.65625 6.625 -42.71875 C 6.625 -49.570312 7.640625 -55.703125 9.671875 -61.109375 C 11.710938 -66.515625 14.648438 -71.164062 18.484375 -75.0625 C 22.316406 -78.957031 26.90625 -81.921875 32.25 -83.953125 C 37.601562 -85.984375 43.59375 -87 50.21875 -87 C 59.050781 -87 66.722656 -85.195312 73.234375 -81.59375 C 79.742188 -77.988281 84.800781 -72.875 88.40625 -66.25 C 92.007812 -59.625 93.8125 -51.78125 93.8125 -42.71875 C 93.8125 -35.863281 92.789062 -29.703125 90.75 -24.234375 C 88.71875 -18.773438 85.78125 -14.097656 81.9375 -10.203125 C 78.101562 -6.304688 73.515625 -3.335938 68.171875 -1.296875 C 62.828125 0.734375 56.84375 1.75 50.21875 1.75 Z M 50.21875 -14.828125 C 54.519531 -14.828125 58.296875 -15.867188 61.546875 -17.953125 C 64.804688 -20.046875 67.335938 -23.15625 69.140625 -27.28125 C 70.941406 -31.414062 71.84375 -36.5625 71.84375 -42.71875 C 71.84375 -52.019531 69.863281 -58.960938 65.90625 -63.546875 C 61.957031 -68.140625 56.726562 -70.4375 50.21875 -70.4375 C 45.914062 -70.4375 42.132812 -69.421875 38.875 -67.390625 C 35.625 -65.359375 33.097656 -62.273438 31.296875 -58.140625 C 29.492188 -54.015625 28.59375 -48.875 28.59375 -42.71875 C 28.59375 -33.53125 30.566406 -26.582031 34.515625 -21.875 C 38.472656 -17.175781 43.707031 -14.828125 50.21875 -14.828125 Z M 50.21875 -14.828125 "/></g></g></g><g fill="#2b2b2b" fill-opacity="1"><g transform="translate(791.615848, 403.35972)"><g><path d="M 22.140625 32.78125 C 18.648438 32.78125 15.972656 31.847656 14.109375 29.984375 C 12.253906 28.128906 11.328125 25.398438 11.328125 21.796875 L 11.328125 -75.671875 C 11.328125 -79.273438 12.253906 -82.003906 14.109375 -83.859375 C 15.972656 -85.722656 18.59375 -86.65625 21.96875 -86.65625 C 25.457031 -86.65625 28.128906 -85.722656 29.984375 -83.859375 C 31.847656 -82.003906 32.78125 -79.273438 32.78125 -75.671875 L 32.78125 -62.078125 L 30.859375 -67.296875 C 32.609375 -73.222656 36.179688 -77.988281 41.578125 -81.59375 C 46.984375 -85.195312 53.289062 -87 60.5 -87 C 67.9375 -87 74.472656 -85.195312 80.109375 -81.59375 C 85.753906 -77.988281 90.144531 -72.90625 93.28125 -66.34375 C 96.414062 -59.78125 97.984375 -51.90625 97.984375 -42.71875 C 97.984375 -33.65625 96.414062 -25.78125 93.28125 -19.09375 C 90.144531 -12.40625 85.785156 -7.257812 80.203125 -3.65625 C 74.628906 -0.0507812 68.0625 1.75 60.5 1.75 C 53.40625 1.75 47.1875 -0.0195312 41.84375 -3.5625 C 36.5 -7.113281 32.894531 -11.738281 31.03125 -17.4375 L 33.125 -17.4375 L 33.125 21.796875 C 33.125 25.398438 32.164062 28.128906 30.25 29.984375 C 28.332031 31.847656 25.628906 32.78125 22.140625 32.78125 Z M 54.40625 -14.828125 C 58.695312 -14.828125 62.46875 -15.867188 65.71875 -17.953125 C 68.976562 -20.046875 71.507812 -23.15625 73.3125 -27.28125 C 75.113281 -31.414062 76.015625 -36.5625 76.015625 -42.71875 C 76.015625 -52.019531 74.039062 -58.960938 70.09375 -63.546875 C 66.144531 -68.140625 60.914062 -70.4375 54.40625 -70.4375 C 50.101562 -70.4375 46.320312 -69.421875 43.0625 -67.390625 C 39.8125 -65.359375 37.285156 -62.273438 35.484375 -58.140625 C 33.679688 -54.015625 32.78125 -48.875 32.78125 -42.71875 C 32.78125 -33.53125 34.753906 -26.582031 38.703125 -21.875 C 42.660156 -17.175781 47.894531 -14.828125 54.40625 -14.828125 Z M 54.40625 -14.828125 "/></g></g></g></svg>