<svg xmlns="http://www.w3.org/2000/svg" xmlns:xlink="http://www.w3.org/1999/xlink" width="500"
  zoomAndPan="magnify" viewBox="0 0 375 374.999991" height="500" preserveAspectRatio="xMidYMid meet"
  version="1.0">
  <defs>
    <clipPath id="062ba76db3">
      <path d="M 2 31.40625 L 375 31.40625 L 375 343.40625 L 2 343.40625 Z M 2 31.40625 "
        clip-rule="nonzero" />
    </clipPath>
  </defs>
  <g clip-path="url(#062ba76db3)">
    <path fill="#4F4F4F"
      d="M 251.109375 187.597656 C 312.269531 187.597656 316.582031 125.261719 290.511719 104.285156 C 280.515625 96.25 266.988281 92.328125 249.738281 92.328125 L 210.335938 92.328125 C 202.886719 92.328125 196.8125 98.40625 196.8125 105.855469 L 196.8125 174.070312 C 196.8125 181.519531 202.886719 187.597656 210.335938 187.597656 Z M 19.996094 272.085938 C 25.875 272.085938 36.070312 270.515625 36.070312 279.730469 C 36.070312 288.746094 25.679688 287.375 19.996094 287.375 C 9.996094 287.375 9.996094 272.085938 19.996094 272.085938 Z M 118.792969 332.855469 L 155.058594 332.855469 C 165.054688 332.855469 165.054688 317.761719 155.058594 317.761719 L 85.46875 317.761719 C 75.46875 317.761719 75.46875 302.664062 85.46875 302.664062 C 103.503906 302.664062 121.339844 302.664062 139.375 302.664062 C 149.371094 302.664062 149.371094 287.570312 139.375 287.570312 L 106.441406 287.570312 C 96.445312 287.570312 96.445312 272.476562 106.441406 272.476562 C 115.066406 272.476562 123.890625 272.476562 132.515625 272.476562 C 142.511719 272.476562 142.511719 257.382812 132.515625 257.382812 L 86.644531 257.382812 C 76.648438 257.382812 76.648438 242.289062 86.644531 242.289062 L 131.730469 242.289062 C 141.53125 242.289062 142.316406 227.195312 131.140625 227.195312 L 107.617188 227.195312 C 97.621094 227.195312 97.621094 212.101562 107.617188 212.101562 C 132.90625 212.101562 158.195312 212.101562 183.480469 212.101562 C 193.480469 212.101562 193.480469 197.007812 183.480469 197.007812 L 82.527344 197.007812 C 72.53125 197.007812 72.53125 181.914062 82.527344 181.914062 L 115.066406 181.914062 C 125.066406 181.914062 125.066406 166.820312 115.066406 166.820312 L 67.824219 166.820312 C 57.828125 166.820312 57.828125 151.726562 67.824219 151.726562 C 95.660156 151.726562 123.691406 151.726562 151.527344 151.726562 C 161.527344 151.726562 161.527344 136.632812 151.527344 136.632812 L 105.265625 136.632812 C 95.269531 136.632812 95.269531 121.535156 105.265625 121.535156 L 141.335938 121.535156 C 151.332031 121.535156 151.332031 106.441406 141.335938 106.441406 L 96.835938 106.640625 C 86.839844 106.640625 86.839844 91.542969 96.835938 91.542969 L 170.152344 91.742188 C 180.148438 91.742188 180.148438 76.648438 170.152344 76.648438 L 95.464844 76.84375 C 85.46875 76.84375 85.46875 61.75 95.464844 61.75 L 131.925781 61.75 C 141.921875 61.75 141.53125 47.4375 133.296875 46.65625 C 123.691406 46.65625 114.085938 46.65625 104.285156 46.65625 C 94.289062 46.65625 94.289062 31.558594 104.285156 31.558594 C 154.664062 31.558594 205.042969 31.558594 255.621094 31.558594 C 324.230469 31.558594 375 69.785156 375 140.355469 C 375 214.257812 317.367188 249.933594 248.757812 249.933594 L 210.140625 249.933594 C 202.691406 249.933594 196.613281 256.011719 196.613281 263.460938 L 196.613281 329.914062 C 196.613281 337.363281 190.539062 343.441406 183.089844 343.441406 L 111.539062 343.441406 C 110.363281 337.558594 113.890625 332.855469 118.792969 332.855469 Z M 27.246094 150.941406 L 45.085938 150.941406 C 55.082031 150.941406 55.082031 166.035156 45.085938 166.035156 L 27.246094 166.035156 C 17.25 166.035156 17.25 150.941406 27.246094 150.941406 Z M 59.003906 60.375 L 69.785156 60.375 C 79.78125 60.375 79.78125 75.46875 69.785156 75.46875 L 59.003906 75.46875 C 49.007812 75.46875 49.007812 60.375 59.003906 60.375 Z M 48.613281 302.46875 C 54.496094 302.46875 64.6875 300.902344 64.6875 310.113281 C 64.6875 319.132812 54.300781 317.761719 48.613281 317.761719 C 38.617188 317.5625 38.617188 302.46875 48.613281 302.46875 Z M 65.863281 211.511719 L 84.488281 211.511719 C 94.484375 211.511719 94.484375 226.605469 84.488281 226.605469 L 65.863281 226.605469 C 56.0625 226.605469 56.0625 211.511719 65.863281 211.511719 Z M 9.996094 90.367188 L 72.921875 90.367188 C 82.917969 90.367188 82.917969 105.460938 72.921875 105.460938 L 9.996094 105.460938 C 0 105.460938 0 90.367188 9.996094 90.367188 Z M 49.789062 272.085938 L 81.9375 272.085938 C 91.9375 272.085938 91.9375 287.179688 81.9375 287.179688 L 49.789062 287.179688 C 39.792969 287.375 39.792969 272.085938 49.789062 272.085938 Z M 59.59375 120.558594 L 78.214844 120.558594 C 88.210938 120.558594 88.210938 135.652344 78.214844 135.652344 L 59.59375 135.652344 C 49.59375 135.652344 49.59375 120.558594 59.59375 120.558594 Z M 59.59375 120.558594 "
      fill-opacity="1" fill-rule="evenodd" />
  </g>
</svg>