<svg xmlns="http://www.w3.org/2000/svg" xmlns:xlink="http://www.w3.org/1999/xlink" width="1200" zoomAndPan="magnify" viewBox="0 0 900 449.999984" height="600" preserveAspectRatio="xMidYMid meet" version="1.0"><defs><g/><clipPath id="1d6f0d83c1"><path d="M 3 26.570312 L 454.5 26.570312 L 454.5 404.570312 L 3 404.570312 Z M 3 26.570312 " clip-rule="nonzero"/></clipPath></defs><g clip-path="url(#1d6f0d83c1)"><path fill="#ffffff" d="M 304.1875 215.777344 C 378.277344 215.777344 383.5 140.261719 351.917969 114.855469 C 339.808594 105.117188 323.421875 100.367188 302.527344 100.367188 L 254.796875 100.367188 C 245.773438 100.367188 238.414062 107.730469 238.414062 116.753906 L 238.414062 199.390625 C 238.414062 208.414062 245.773438 215.777344 254.796875 215.777344 Z M 24.222656 318.121094 C 31.34375 318.121094 43.691406 316.222656 43.691406 327.382812 C 43.691406 338.304688 31.109375 336.644531 24.222656 336.644531 C 12.109375 336.644531 12.109375 318.121094 24.222656 318.121094 Z M 143.902344 391.734375 L 187.832031 391.734375 C 199.941406 391.734375 199.941406 373.449219 187.832031 373.449219 L 103.535156 373.449219 C 91.421875 373.449219 91.421875 355.164062 103.535156 355.164062 C 125.378906 355.164062 146.988281 355.164062 168.835938 355.164062 C 180.945312 355.164062 180.945312 336.882812 168.835938 336.882812 L 128.941406 336.882812 C 116.832031 336.882812 116.832031 318.597656 128.941406 318.597656 C 139.390625 318.597656 150.078125 318.597656 160.523438 318.597656 C 172.636719 318.597656 172.636719 300.3125 160.523438 300.3125 L 104.957031 300.3125 C 92.847656 300.3125 92.847656 282.027344 104.957031 282.027344 L 159.574219 282.027344 C 171.449219 282.027344 172.398438 263.742188 158.863281 263.742188 L 130.367188 263.742188 C 118.257812 263.742188 118.257812 245.457031 130.367188 245.457031 C 161 245.457031 191.632812 245.457031 222.265625 245.457031 C 234.375 245.457031 234.375 227.171875 222.265625 227.171875 L 99.972656 227.171875 C 87.859375 227.171875 87.859375 208.890625 99.972656 208.890625 L 139.390625 208.890625 C 151.5 208.890625 151.5 190.605469 139.390625 190.605469 L 82.160156 190.605469 C 70.050781 190.605469 70.050781 172.320312 82.160156 172.320312 C 115.882812 172.320312 149.839844 172.320312 183.558594 172.320312 C 195.667969 172.320312 195.667969 154.035156 183.558594 154.035156 L 127.515625 154.035156 C 115.40625 154.035156 115.40625 135.75 127.515625 135.75 L 171.210938 135.75 C 183.320312 135.75 183.320312 117.464844 171.210938 117.464844 L 117.304688 117.703125 C 105.195312 117.703125 105.195312 99.417969 117.304688 99.417969 L 206.117188 99.65625 C 218.226562 99.65625 218.226562 81.371094 206.117188 81.371094 L 115.644531 81.609375 C 103.535156 81.609375 103.535156 63.324219 115.644531 63.324219 L 159.8125 63.324219 C 171.921875 63.324219 171.449219 45.988281 161.472656 45.039062 C 149.839844 45.039062 138.203125 45.039062 126.328125 45.039062 C 114.21875 45.039062 114.21875 26.753906 126.328125 26.753906 C 187.359375 26.753906 248.386719 26.753906 309.652344 26.753906 C 392.761719 26.753906 454.265625 73.0625 454.265625 158.546875 C 454.265625 248.070312 384.453125 291.289062 301.339844 291.289062 L 254.558594 291.289062 C 245.535156 291.289062 238.175781 298.648438 238.175781 307.671875 L 238.175781 388.171875 C 238.175781 397.195312 230.8125 404.558594 221.789062 404.558594 L 135.117188 404.558594 C 133.691406 397.433594 137.964844 391.734375 143.902344 391.734375 Z M 33.007812 171.371094 L 54.617188 171.371094 C 66.726562 171.371094 66.726562 189.65625 54.617188 189.65625 L 33.007812 189.65625 C 20.898438 189.65625 20.898438 171.371094 33.007812 171.371094 Z M 71.476562 61.664062 L 84.535156 61.664062 C 96.648438 61.664062 96.648438 79.945312 84.535156 79.945312 L 71.476562 79.945312 C 59.367188 79.945312 59.367188 61.664062 71.476562 61.664062 Z M 58.890625 354.929688 C 66.015625 354.929688 78.363281 353.027344 78.363281 364.191406 C 78.363281 375.113281 65.777344 373.449219 58.890625 373.449219 C 46.78125 373.214844 46.78125 354.929688 58.890625 354.929688 Z M 79.789062 244.746094 L 102.347656 244.746094 C 114.457031 244.746094 114.457031 263.03125 102.347656 263.03125 L 79.789062 263.03125 C 67.914062 263.03125 67.914062 244.746094 79.789062 244.746094 Z M 12.109375 97.996094 L 88.335938 97.996094 C 100.445312 97.996094 100.445312 116.277344 88.335938 116.277344 L 12.109375 116.277344 C 0 116.277344 0 97.996094 12.109375 97.996094 Z M 60.316406 318.121094 L 99.257812 318.121094 C 111.371094 318.121094 111.371094 336.40625 99.257812 336.40625 L 60.316406 336.40625 C 48.203125 336.644531 48.203125 318.121094 60.316406 318.121094 Z M 72.1875 134.5625 L 94.746094 134.5625 C 106.859375 134.5625 106.859375 152.847656 94.746094 152.847656 L 72.1875 152.847656 C 60.078125 152.847656 60.078125 134.5625 72.1875 134.5625 Z M 72.1875 134.5625 " fill-opacity="1" fill-rule="evenodd"/></g><g fill="#ffffff" fill-opacity="1"><g transform="translate(281.51938, 402.186941)"><g><path d="M 51.4375 1.5625 C 42.488281 1.5625 34.785156 -0.207031 28.328125 -3.75 C 21.878906 -7.289062 16.878906 -12.316406 13.328125 -18.828125 C 9.785156 -25.335938 8.015625 -33.128906 8.015625 -42.203125 C 8.015625 -51.035156 9.757812 -58.734375 13.25 -65.296875 C 16.738281 -71.867188 21.535156 -77.015625 27.640625 -80.734375 C 33.742188 -84.453125 40.804688 -86.3125 48.828125 -86.3125 C 54.523438 -86.3125 59.640625 -85.351562 64.171875 -83.4375 C 68.703125 -81.519531 72.566406 -78.757812 75.765625 -75.15625 C 78.960938 -71.550781 81.40625 -67.191406 83.09375 -62.078125 C 84.78125 -56.960938 85.625 -51.207031 85.625 -44.8125 C 85.625 -42.957031 85.097656 -41.59375 84.046875 -40.71875 C 83.003906 -39.84375 81.492188 -39.40625 79.515625 -39.40625 L 18.828125 -39.40625 L 18.828125 -48.65625 L 76.203125 -48.65625 L 73.40625 -46.390625 C 73.40625 -52.660156 72.472656 -57.972656 70.609375 -62.328125 C 68.753906 -66.691406 66.050781 -70.035156 62.5 -72.359375 C 58.957031 -74.691406 54.515625 -75.859375 49.171875 -75.859375 C 43.242188 -75.859375 38.21875 -74.488281 34.09375 -71.75 C 29.96875 -69.019531 26.859375 -65.242188 24.765625 -60.421875 C 22.671875 -55.597656 21.625 -49.988281 21.625 -43.59375 L 21.625 -42.546875 C 21.625 -31.847656 24.207031 -23.707031 29.375 -18.125 C 34.550781 -12.550781 41.90625 -9.765625 51.4375 -9.765625 C 55.394531 -9.765625 59.316406 -10.285156 63.203125 -11.328125 C 67.097656 -12.378906 70.90625 -14.125 74.625 -16.5625 C 76.257812 -17.613281 77.742188 -18.109375 79.078125 -18.046875 C 80.410156 -17.984375 81.484375 -17.570312 82.296875 -16.8125 C 83.117188 -16.0625 83.671875 -15.132812 83.953125 -14.03125 C 84.242188 -12.925781 84.128906 -11.734375 83.609375 -10.453125 C 83.085938 -9.179688 82.070312 -8.082031 80.5625 -7.15625 C 76.726562 -4.363281 72.191406 -2.210938 66.953125 -0.703125 C 61.722656 0.804688 56.550781 1.5625 51.4375 1.5625 Z M 51.4375 1.5625 "/></g></g></g><g fill="#ffffff" fill-opacity="1"><g transform="translate(374.280626, 402.186941)"><g><path d="M 47.25 1.5625 C 40.625 1.5625 35.070312 0.375 30.59375 -2 C 26.125 -4.382812 22.785156 -7.875 20.578125 -12.46875 C 18.367188 -17.0625 17.265625 -22.671875 17.265625 -29.296875 L 17.265625 -73.765625 L 5.578125 -73.765625 C 3.597656 -73.765625 2.085938 -74.253906 1.046875 -75.234375 C 0.00390625 -76.222656 -0.515625 -77.59375 -0.515625 -79.34375 C -0.515625 -81.082031 0.00390625 -82.414062 1.046875 -83.34375 C 2.085938 -84.28125 3.597656 -84.75 5.578125 -84.75 L 17.265625 -84.75 L 17.265625 -104.796875 C 17.265625 -107.117188 17.898438 -108.890625 19.171875 -110.109375 C 20.453125 -111.335938 22.195312 -111.953125 24.40625 -111.953125 C 26.613281 -111.953125 28.328125 -111.335938 29.546875 -110.109375 C 30.773438 -108.890625 31.390625 -107.117188 31.390625 -104.796875 L 31.390625 -84.75 L 53.359375 -84.75 C 55.335938 -84.75 56.847656 -84.28125 57.890625 -83.34375 C 58.941406 -82.414062 59.46875 -81.082031 59.46875 -79.34375 C 59.46875 -77.59375 58.941406 -76.222656 57.890625 -75.234375 C 56.847656 -74.253906 55.335938 -73.765625 53.359375 -73.765625 L 31.390625 -73.765625 L 31.390625 -30.6875 C 31.390625 -24.0625 32.78125 -19.035156 35.5625 -15.609375 C 38.351562 -12.179688 42.890625 -10.46875 49.171875 -10.46875 C 51.378906 -10.46875 53.265625 -10.695312 54.828125 -11.15625 C 56.398438 -11.625 57.710938 -11.859375 58.765625 -11.859375 C 59.804688 -11.972656 60.675781 -11.625 61.375 -10.8125 C 62.070312 -10 62.421875 -8.601562 62.421875 -6.625 C 62.421875 -5.226562 62.160156 -3.945312 61.640625 -2.78125 C 61.117188 -1.625 60.21875 -0.8125 58.9375 -0.34375 C 57.539062 0.113281 55.707031 0.546875 53.4375 0.953125 C 51.175781 1.359375 49.113281 1.5625 47.25 1.5625 Z M 47.25 1.5625 "/></g></g></g><g fill="#ffffff" fill-opacity="1"><g transform="translate(435.307762, 402.186941)"><g/></g></g><g fill="#ffffff" fill-opacity="1"><g transform="translate(480.293488, 402.186941)"><g><path d="M 54.921875 1.5625 C 49.460938 1.5625 44.113281 1.097656 38.875 0.171875 C 33.644531 -0.753906 28.789062 -2.085938 24.3125 -3.828125 C 19.84375 -5.578125 15.804688 -7.789062 12.203125 -10.46875 C 10.804688 -11.507812 9.847656 -12.695312 9.328125 -14.03125 C 8.804688 -15.375 8.691406 -16.710938 8.984375 -18.046875 C 9.273438 -19.378906 9.851562 -20.507812 10.71875 -21.4375 C 11.59375 -22.375 12.671875 -22.898438 13.953125 -23.015625 C 15.234375 -23.128906 16.628906 -22.722656 18.140625 -21.796875 C 23.367188 -18.078125 28.945312 -15.375 34.875 -13.6875 C 40.800781 -12 47.484375 -11.15625 54.921875 -11.15625 C 65.390625 -11.15625 73.148438 -13.101562 78.203125 -17 C 83.265625 -20.894531 85.796875 -26.039062 85.796875 -32.4375 C 85.796875 -37.664062 83.960938 -41.757812 80.296875 -44.71875 C 76.640625 -47.6875 70.507812 -50.046875 61.90625 -51.796875 L 43.765625 -55.453125 C 32.835938 -57.773438 24.671875 -61.582031 19.265625 -66.875 C 13.859375 -72.164062 11.15625 -79.226562 11.15625 -88.0625 C 11.15625 -93.519531 12.257812 -98.488281 14.46875 -102.96875 C 16.675781 -107.445312 19.753906 -111.28125 23.703125 -114.46875 C 27.660156 -117.664062 32.367188 -120.132812 37.828125 -121.875 C 43.296875 -123.625 49.34375 -124.5 55.96875 -124.5 C 63.289062 -124.5 70.117188 -123.484375 76.453125 -121.453125 C 82.796875 -119.421875 88.523438 -116.367188 93.640625 -112.296875 C 94.921875 -111.253906 95.789062 -110.0625 96.25 -108.71875 C 96.71875 -107.382812 96.773438 -106.109375 96.421875 -104.890625 C 96.078125 -103.671875 95.46875 -102.648438 94.59375 -101.828125 C 93.726562 -101.015625 92.625 -100.550781 91.28125 -100.4375 C 89.945312 -100.320312 88.46875 -100.785156 86.84375 -101.828125 C 82.1875 -105.316406 77.359375 -107.847656 72.359375 -109.421875 C 67.367188 -110.992188 61.847656 -111.78125 55.796875 -111.78125 C 49.640625 -111.78125 44.320312 -110.847656 39.84375 -108.984375 C 35.363281 -107.117188 31.875 -104.414062 29.375 -100.875 C 26.882812 -97.332031 25.640625 -93.234375 25.640625 -88.578125 C 25.640625 -83.003906 27.351562 -78.585938 30.78125 -75.328125 C 34.207031 -72.078125 39.816406 -69.695312 47.609375 -68.1875 L 65.734375 -64.34375 C 77.472656 -61.90625 86.160156 -58.210938 91.796875 -53.265625 C 97.441406 -48.328125 100.265625 -41.613281 100.265625 -33.125 C 100.265625 -28.007812 99.21875 -23.300781 97.125 -19 C 95.03125 -14.707031 92.003906 -11.019531 88.046875 -7.9375 C 84.097656 -4.851562 79.332031 -2.5 73.75 -0.875 C 68.175781 0.75 61.898438 1.5625 54.921875 1.5625 Z M 54.921875 1.5625 "/></g></g></g><g fill="#ffffff" fill-opacity="1"><g transform="translate(587.526886, 402.186941)"><g><path d="M 20.234375 1.21875 C 17.898438 1.21875 16.148438 0.582031 14.984375 -0.6875 C 13.828125 -1.96875 13.25 -3.773438 13.25 -6.109375 L 13.25 -117 C 13.25 -119.332031 13.828125 -121.109375 14.984375 -122.328125 C 16.148438 -123.546875 17.898438 -124.15625 20.234375 -124.15625 C 22.441406 -124.15625 24.179688 -123.546875 25.453125 -122.328125 C 26.734375 -121.109375 27.375 -119.332031 27.375 -117 L 27.375 -65.90625 L 25.109375 -65.90625 C 27.546875 -72.65625 31.523438 -77.742188 37.046875 -81.171875 C 42.578125 -84.597656 48.945312 -86.3125 56.15625 -86.3125 C 62.894531 -86.3125 68.5 -85.085938 72.96875 -82.640625 C 77.445312 -80.203125 80.789062 -76.515625 83 -71.578125 C 85.207031 -66.640625 86.3125 -60.390625 86.3125 -52.828125 L 86.3125 -6.109375 C 86.3125 -3.773438 85.703125 -1.96875 84.484375 -0.6875 C 83.265625 0.582031 81.550781 1.21875 79.34375 1.21875 C 77.019531 1.21875 75.242188 0.582031 74.015625 -0.6875 C 72.796875 -1.96875 72.1875 -3.773438 72.1875 -6.109375 L 72.1875 -51.96875 C 72.1875 -59.875 70.644531 -65.65625 67.5625 -69.3125 C 64.488281 -72.976562 59.578125 -74.8125 52.828125 -74.8125 C 45.046875 -74.8125 38.859375 -72.394531 34.265625 -67.5625 C 29.671875 -62.738281 27.375 -56.316406 27.375 -48.296875 L 27.375 -6.109375 C 27.375 -1.222656 24.992188 1.21875 20.234375 1.21875 Z M 20.234375 1.21875 "/></g></g></g><g fill="#ffffff" fill-opacity="1"><g transform="translate(686.565216, 402.186941)"><g><path d="M 48.46875 1.5625 C 40.21875 1.5625 33.066406 -0.234375 27.015625 -3.828125 C 20.972656 -7.429688 16.296875 -12.519531 12.984375 -19.09375 C 9.671875 -25.664062 8.015625 -33.425781 8.015625 -42.375 C 8.015625 -49.113281 8.941406 -55.1875 10.796875 -60.59375 C 12.660156 -66 15.394531 -70.617188 19 -74.453125 C 22.601562 -78.296875 26.875 -81.234375 31.8125 -83.265625 C 36.757812 -85.296875 42.3125 -86.3125 48.46875 -86.3125 C 56.726562 -86.3125 63.878906 -84.507812 69.921875 -80.90625 C 75.960938 -77.300781 80.640625 -72.210938 83.953125 -65.640625 C 87.273438 -59.078125 88.9375 -51.320312 88.9375 -42.375 C 88.9375 -35.632812 88.003906 -29.585938 86.140625 -24.234375 C 84.273438 -18.890625 81.539062 -14.269531 77.9375 -10.375 C 74.34375 -6.476562 70.070312 -3.515625 65.125 -1.484375 C 60.1875 0.546875 54.632812 1.5625 48.46875 1.5625 Z M 48.46875 -9.765625 C 53.707031 -9.765625 58.300781 -11.039062 62.25 -13.59375 C 66.207031 -16.15625 69.257812 -19.875 71.40625 -24.75 C 73.550781 -29.632812 74.625 -35.507812 74.625 -42.375 C 74.625 -52.945312 72.269531 -61.023438 67.5625 -66.609375 C 62.863281 -72.191406 56.5 -74.984375 48.46875 -74.984375 C 43.125 -74.984375 38.503906 -73.734375 34.609375 -71.234375 C 30.710938 -68.734375 27.6875 -65.070312 25.53125 -60.25 C 23.382812 -55.425781 22.3125 -49.46875 22.3125 -42.375 C 22.3125 -31.90625 24.695312 -23.851562 29.46875 -18.21875 C 34.238281 -12.582031 40.570312 -9.765625 48.46875 -9.765625 Z M 48.46875 -9.765625 "/></g></g></g><g fill="#ffffff" fill-opacity="1"><g transform="translate(783.511177, 402.186941)"><g><path d="M 20.234375 32.609375 C 17.898438 32.609375 16.148438 32 14.984375 30.78125 C 13.828125 29.5625 13.25 27.785156 13.25 25.453125 L 13.25 -78.8125 C 13.25 -81.144531 13.828125 -82.921875 14.984375 -84.140625 C 16.148438 -85.359375 17.835938 -85.96875 20.046875 -85.96875 C 22.378906 -85.96875 24.15625 -85.359375 25.375 -84.140625 C 26.59375 -82.921875 27.203125 -81.144531 27.203125 -78.8125 L 27.203125 -62.25 L 25.28125 -64.6875 C 27.144531 -71.3125 30.835938 -76.570312 36.359375 -80.46875 C 41.878906 -84.363281 48.476562 -86.3125 56.15625 -86.3125 C 63.707031 -86.3125 70.300781 -84.535156 75.9375 -80.984375 C 81.570312 -77.441406 85.929688 -72.382812 89.015625 -65.8125 C 92.097656 -59.25 93.640625 -51.4375 93.640625 -42.375 C 93.640625 -33.425781 92.097656 -25.664062 89.015625 -19.09375 C 85.929688 -12.519531 81.597656 -7.429688 76.015625 -3.828125 C 70.441406 -0.234375 63.820312 1.5625 56.15625 1.5625 C 48.476562 1.5625 41.90625 -0.378906 36.4375 -4.265625 C 30.976562 -8.160156 27.257812 -13.363281 25.28125 -19.875 L 27.375 -19.875 L 27.375 25.453125 C 27.375 27.785156 26.734375 29.5625 25.453125 30.78125 C 24.179688 32 22.441406 32.609375 20.234375 32.609375 Z M 53.1875 -9.765625 C 58.53125 -9.765625 63.148438 -11.039062 67.046875 -13.59375 C 70.941406 -16.15625 73.960938 -19.875 76.109375 -24.75 C 78.265625 -29.632812 79.34375 -35.507812 79.34375 -42.375 C 79.34375 -52.945312 76.988281 -61.023438 72.28125 -66.609375 C 67.570312 -72.191406 61.207031 -74.984375 53.1875 -74.984375 C 47.957031 -74.984375 43.363281 -73.734375 39.40625 -71.234375 C 35.457031 -68.734375 32.40625 -65.070312 30.25 -60.25 C 28.101562 -55.425781 27.03125 -49.46875 27.03125 -42.375 C 27.03125 -31.90625 29.410156 -23.851562 34.171875 -18.21875 C 38.941406 -12.582031 45.28125 -9.765625 53.1875 -9.765625 Z M 53.1875 -9.765625 "/></g></g></g></svg>