<svg xmlns="http://www.w3.org/2000/svg" xmlns:xlink="http://www.w3.org/1999/xlink" width="1000" zoomAndPan="magnify" viewBox="0 0 750 749.999995" height="1000" preserveAspectRatio="xMidYMid meet" version="1.0"><defs><g/></defs><rect x="-75" width="900" fill="#ffffff" y="-74.999999" height="899.999994" fill-opacity="1"/><rect x="-75" width="900" fill="#1d1c1c" y="-74.999999" height="899.999994" fill-opacity="1"/><path fill="#fffefb" d="M 248.949219 351.183594 C 246.972656 339.5625 245 326.070312 240.949219 314.964844 C 236.792969 303.753906 219.03125 297.113281 209.890625 289.535156 C 195.039062 277.082031 182.261719 261.617188 175.71875 243.457031 C 169.171875 225.292969 169.171875 204.222656 178.417969 187.203125 C 184.339844 176.097656 193.792969 167.277344 199.089844 155.964844 C 207.917969 137.28125 204.59375 114.65625 213.527344 96.078125 C 225.886719 70.339844 256.84375 60.480469 278.65625 42.113281 C 286.445312 35.574219 293.199219 27.894531 301.300781 21.5625 C 324.878906 3.191406 359.363281 0.183594 385.746094 14.296875 C 397.070312 20.316406 406.730469 29.035156 418.46875 34.535156 C 432.699219 41.28125 448.902344 42.628906 463.753906 47.921875 C 502.914062 61.726562 529.402344 104.902344 524 146.105469 C 522.859375 154.824219 520.46875 163.4375 520.261719 172.257812 C 519.949219 194.261719 533.558594 213.667969 540.101562 234.738281 C 551.527344 271.0625 541.554688 310.5 545.191406 348.382812 C 547.890625 377.234375 556.617188 405.257812 564.71875 432.96875 C 580.921875 488.285156 571.472656 522.636719 570.015625 524.816406 L 361.546875 524.816406 C 357.703125 522.429688 354.171875 519.523438 351.367188 515.789062 C 341.394531 502.710938 341.1875 482.992188 336.410156 467.734375 C 330.28125 448.015625 328.410156 427.675781 312.621094 413.871094 C 300.46875 403.285156 292.679688 397.886719 279.277344 388.753906 C 266.085938 379.3125 251.648438 367.0625 248.949219 351.183594 Z M 248.949219 351.183594 " fill-opacity="1" fill-rule="nonzero"/><path fill="#1d1c1c" d="M 400.914062 143.300781 C 410.988281 147.972656 419.714844 154.925781 428.4375 161.878906 C 452.019531 180.664062 475.492188 199.554688 499.074219 218.339844 C 506.136719 224.046875 513.511719 229.964844 517.355469 238.164062 C 523.066406 250.304688 529.609375 287.355469 503.953125 306.972656 C 495.644531 313.40625 485.878906 317.558594 475.597656 320.359375 C 453.886719 326.070312 431.867188 331.464844 412.132812 341.949219 C 391.980469 352.636719 374.839844 368.414062 354.066406 377.648438 C 333.292969 386.886719 305.972656 387.71875 290.703125 370.902344 C 278.863281 357.929688 277.824219 338.109375 281.355469 320.878906 C 284.886719 303.652344 292.46875 287.460938 295.585938 270.128906 C 299.742188 248.332031 296.832031 225.8125 298.078125 203.707031 C 301.089844 150.566406 349.289062 119.222656 400.914062 143.300781 Z M 325.191406 44.5 C 319.375 54.566406 316.878906 66.605469 319.164062 78.019531 C 321.449219 89.4375 328.722656 99.921875 339.109375 105.109375 C 349.496094 110.195312 362.894531 109.570312 372.140625 102.617188 C 379.929688 96.703125 384.398438 86.945312 385.019531 77.292969 C 385.746094 67.644531 383.046875 57.78125 378.890625 48.960938 C 375.878906 42.839844 372.035156 36.820312 366.53125 32.875 C 351.886719 22.390625 333.394531 30.175781 325.191406 44.5 Z M 427.089844 93.796875 C 425.117188 100.957031 423.558594 108.328125 424.078125 115.589844 C 424.597656 122.855469 427.503906 130.328125 433.527344 135.414062 C 440.175781 141.121094 449.628906 143.300781 458.875 143.925781 C 465.003906 144.339844 471.546875 144.132812 477.257812 142.058594 C 487.75 138.320312 494.398438 128.460938 495.644531 118.496094 C 497.515625 103.863281 487.4375 78.851562 471.859375 71.171875 C 451.808594 61.414062 431.347656 77.605469 427.089844 93.796875 Z M 240.429688 86.429688 C 235.546875 89.644531 232.328125 94.523438 230.042969 99.402344 C 224.640625 111.128906 223.5 124.308594 226.71875 136.660156 C 228.902344 144.859375 233.78125 153.472656 242.820312 157.003906 C 251.335938 160.425781 261.933594 158.453125 269.929688 153.992188 C 281.5625 147.453125 288.730469 135.933594 289.5625 124.207031 C 290.394531 112.476562 285.09375 100.542969 276.058594 91.511719 C 267.539062 83.210938 251.542969 79.164062 240.429688 86.429688 Z M 216.953125 208.066406 C 211.136719 213.875 209.683594 222.90625 209.582031 231.207031 C 209.371094 240.652344 210.515625 250.410156 214.566406 258.917969 C 218.617188 267.429688 226.097656 274.796875 235.339844 276.976562 C 245.519531 279.363281 256.632812 275.316406 263.59375 267.535156 C 270.554688 259.75 273.253906 248.851562 272.320312 238.472656 C 271.175781 228.09375 266.503906 218.339844 259.855469 210.242188 C 256.84375 206.613281 253.414062 203.1875 249.15625 201.214844 C 240.636719 197.476562 223.394531 201.734375 216.953125 208.066406 Z M 216.953125 208.066406 " fill-opacity="1" fill-rule="nonzero"/><g fill="#fffefb" fill-opacity="1"><g transform="translate(15.234377, 698.27905)"><g><path d="M 43.140625 -34.546875 C 43.140625 -30.578125 43.191406 -26.304688 43.296875 -21.734375 C 43.410156 -17.160156 43.851562 -6.171875 44.625 11.234375 C 39.664062 11.234375 34.648438 11.039062 29.578125 10.65625 C 24.515625 10.269531 20.054688 9.75 16.203125 9.09375 C 14.109375 -8.425781 12.5625 -25.3125 11.5625 -41.5625 C 10.570312 -57.8125 10.078125 -73.59375 10.078125 -88.90625 C 10.078125 -92.320312 10.160156 -95.957031 10.328125 -99.8125 C 10.492188 -103.675781 10.796875 -108.085938 11.234375 -113.046875 C 16.960938 -115.910156 23.929688 -118.222656 32.140625 -119.984375 C 40.347656 -121.742188 48.421875 -122.625 56.359375 -122.625 C 69.796875 -122.625 80.175781 -119.785156 87.5 -114.109375 C 94.832031 -108.441406 98.5 -100.539062 98.5 -90.40625 C 98.5 -78.0625 93.566406 -66.875 83.703125 -56.84375 C 73.847656 -46.820312 60.328125 -39.390625 43.140625 -34.546875 Z M 64.453125 -84.453125 C 64.453125 -90.835938 63.210938 -95.679688 60.734375 -98.984375 C 58.253906 -102.296875 54.535156 -103.953125 49.578125 -103.953125 C 48.585938 -103.953125 47.84375 -103.953125 47.34375 -103.953125 C 46.851562 -103.953125 46.382812 -103.894531 45.9375 -103.78125 C 45.28125 -96.40625 44.726562 -88.75 44.28125 -80.8125 C 43.84375 -72.882812 43.515625 -64.566406 43.296875 -55.859375 C 50.347656 -57.734375 55.632812 -61.035156 59.15625 -65.765625 C 62.6875 -70.503906 64.453125 -76.734375 64.453125 -84.453125 Z M 64.453125 -84.453125 "/></g></g></g><g fill="#fffefb" fill-opacity="1"><g transform="translate(120.007859, 698.27905)"><g><path d="M 95.6875 1.65625 C 92.488281 2.644531 82.269531 3.800781 65.03125 5.125 C 47.789062 6.445312 33.382812 7.109375 21.8125 7.109375 C 19.0625 -10.410156 16.554688 -30.847656 14.296875 -54.203125 C 12.035156 -77.566406 10.796875 -97.015625 10.578125 -112.546875 C 27.546875 -115.742188 42.28125 -118.03125 54.78125 -119.40625 C 67.289062 -120.78125 79.550781 -121.46875 91.5625 -121.46875 C 91.5625 -117.394531 91.3125 -113.070312 90.8125 -108.5 C 90.3125 -103.925781 89.515625 -99.160156 88.421875 -94.203125 C 82.242188 -94.203125 75.847656 -94.09375 69.234375 -93.875 C 62.628906 -93.65625 55.75 -93.320312 48.59375 -92.875 C 48.363281 -90.457031 48.191406 -87.675781 48.078125 -84.53125 C 47.972656 -81.394531 47.867188 -76.6875 47.765625 -70.40625 C 53.378906 -72.050781 58.992188 -73.257812 64.609375 -74.03125 C 70.234375 -74.8125 75.96875 -75.203125 81.8125 -75.203125 C 82.6875 -71.335938 83.34375 -67.367188 83.78125 -63.296875 C 84.226562 -59.222656 84.453125 -54.429688 84.453125 -48.921875 C 78.171875 -48.921875 71.941406 -48.726562 65.765625 -48.34375 C 59.597656 -47.957031 53.597656 -47.429688 47.765625 -46.765625 C 47.867188 -41.804688 48.03125 -36.957031 48.25 -32.21875 C 48.476562 -27.488281 48.8125 -22.972656 49.25 -18.671875 C 52.445312 -18.671875 59.164062 -19.300781 69.40625 -20.5625 C 79.65625 -21.832031 87.367188 -22.96875 92.546875 -23.96875 C 93.429688 -21.65625 94.175781 -17.878906 94.78125 -12.640625 C 95.382812 -7.410156 95.6875 -2.644531 95.6875 1.65625 Z M 95.6875 1.65625 "/></g></g></g><g fill="#fffefb" fill-opacity="1"><g transform="translate(220.649909, 698.27905)"><g><path d="M 66.109375 -7.265625 C 61.253906 -6.054688 56.484375 -5.175781 51.796875 -4.625 C 47.117188 -4.070312 41.863281 -3.796875 36.03125 -3.796875 C 36.03125 -19.222656 35.585938 -35.890625 34.703125 -53.796875 C 33.828125 -71.703125 32.613281 -87.15625 31.0625 -100.15625 C 29.632812 -100.039062 26.878906 -99.789062 22.796875 -99.40625 C 18.722656 -99.019531 13.273438 -98.5 6.453125 -97.84375 C 5.015625 -101.695312 3.910156 -105.660156 3.140625 -109.734375 C 2.367188 -113.804688 1.984375 -117.773438 1.984375 -121.640625 C 17.078125 -125.054688 31.484375 -127.503906 45.203125 -128.984375 C 58.921875 -130.472656 74.425781 -131.21875 91.71875 -131.21875 C 92.269531 -129.34375 92.679688 -127.222656 92.953125 -124.859375 C 93.234375 -122.492188 93.375 -119.878906 93.375 -117.015625 C 93.375 -115.023438 93.234375 -112.875 92.953125 -110.5625 C 92.679688 -108.25 92.21875 -105.710938 91.5625 -102.953125 C 87.375 -102.953125 83.296875 -102.925781 79.328125 -102.875 C 75.359375 -102.820312 71.445312 -102.6875 67.59375 -102.46875 C 68.03125 -95.632812 68.359375 -88.523438 68.578125 -81.140625 C 68.804688 -73.765625 68.921875 -66.164062 68.921875 -58.34375 C 68.921875 -51.070312 68.695312 -43.21875 68.25 -34.78125 C 67.8125 -26.351562 67.097656 -17.179688 66.109375 -7.265625 Z M 66.109375 -7.265625 "/></g></g></g><g fill="#fffefb" fill-opacity="1"><g transform="translate(316.664736, 698.27905)"><g><path d="M 79.984375 -56.515625 C 82.523438 -52.992188 84.398438 -49.273438 85.609375 -45.359375 C 86.816406 -41.453125 87.421875 -37.238281 87.421875 -32.71875 C 87.421875 -21.375 83.34375 -11.984375 75.1875 -4.546875 C 67.039062 2.890625 57.019531 6.609375 45.125 6.609375 C 32.007812 6.609375 21.070312 2.5625 12.3125 -5.53125 C 3.550781 -13.632812 -0.828125 -23.25 -0.828125 -34.375 C 2.703125 -36.132812 6.972656 -37.648438 11.984375 -38.921875 C 16.992188 -40.191406 21.148438 -40.828125 24.453125 -40.828125 C 24.453125 -32.453125 26.019531 -25.703125 29.15625 -20.578125 C 32.300781 -15.453125 36.578125 -12.890625 41.984375 -12.890625 C 45.835938 -12.890625 48.8125 -13.960938 50.90625 -16.109375 C 53 -18.265625 54.046875 -21.210938 54.046875 -24.953125 C 54.046875 -28.148438 52.96875 -31.265625 50.8125 -34.296875 C 48.664062 -37.328125 43.90625 -41.648438 36.53125 -47.265625 C 31.019531 -51.453125 26.941406 -54.8125 24.296875 -57.34375 C 21.648438 -59.875 19.390625 -62.351562 17.515625 -64.78125 C 14.867188 -68.53125 12.882812 -72.414062 11.5625 -76.4375 C 10.238281 -80.457031 9.578125 -84.78125 9.578125 -89.40625 C 9.578125 -100.425781 13.515625 -109.40625 21.390625 -116.34375 C 29.273438 -123.289062 39.609375 -126.765625 52.390625 -126.765625 C 63.734375 -126.765625 72.847656 -124.035156 79.734375 -118.578125 C 86.617188 -113.117188 91.164062 -105.046875 93.375 -94.359375 C 90.175781 -92.273438 86.539062 -90.648438 82.46875 -89.484375 C 78.394531 -88.328125 73.050781 -87.53125 66.4375 -87.09375 C 65.445312 -93.925781 63.796875 -98.828125 61.484375 -101.796875 C 59.171875 -104.773438 55.972656 -106.265625 51.890625 -106.265625 C 49.359375 -106.265625 47.347656 -105.460938 45.859375 -103.859375 C 44.367188 -102.265625 43.625 -100.144531 43.625 -97.5 C 43.625 -93.863281 44.722656 -90.394531 46.921875 -87.09375 C 49.128906 -83.789062 53.984375 -79.328125 61.484375 -73.703125 C 66.984375 -69.628906 71 -66.378906 73.53125 -63.953125 C 76.070312 -61.535156 78.222656 -59.054688 79.984375 -56.515625 Z M 79.984375 -56.515625 "/></g></g></g><g fill="#fffefb" fill-opacity="1"><g transform="translate(409.209119, 698.27905)"><g><path d="M 102.46875 -117.34375 C 103.34375 -99.269531 104.082031 -78.113281 104.6875 -53.875 C 105.300781 -29.632812 105.609375 -8.367188 105.609375 9.921875 C 99.546875 9.921875 93.265625 9.644531 86.765625 9.09375 C 80.265625 8.539062 75.582031 7.820312 72.71875 6.9375 C 72.71875 -0.21875 72.660156 -8.585938 72.546875 -18.171875 C 72.441406 -27.765625 72.332031 -37.460938 72.21875 -47.265625 C 66.820312 -47.148438 61.753906 -46.957031 57.015625 -46.6875 C 52.273438 -46.414062 47.8125 -46.003906 43.625 -45.453125 C 43.519531 -39.941406 43.4375 -34.128906 43.375 -28.015625 C 43.320312 -21.898438 43.296875 -13.882812 43.296875 -3.96875 C 40.429688 -3.082031 36.050781 -2.304688 30.15625 -1.640625 C 24.257812 -0.984375 18.945312 -0.65625 14.21875 -0.65625 C 11.90625 -28.75 10.28125 -51.390625 9.34375 -68.578125 C 8.40625 -85.765625 7.9375 -100.363281 7.9375 -112.375 C 10.582031 -114.144531 13.882812 -115.523438 17.84375 -116.515625 C 21.8125 -117.503906 25.890625 -118 30.078125 -118 C 33.160156 -118 35.96875 -117.832031 38.5 -117.5 C 41.039062 -117.175781 43.578125 -116.679688 46.109375 -116.015625 C 45.671875 -111.054688 45.285156 -104.664062 44.953125 -96.84375 C 44.617188 -89.019531 44.34375 -80.257812 44.125 -70.5625 C 48.96875 -71.332031 53.648438 -71.96875 58.171875 -72.46875 C 62.691406 -72.96875 67.207031 -73.269531 71.71875 -73.375 C 71.5 -82.957031 71.171875 -91.851562 70.734375 -100.0625 C 70.296875 -108.269531 69.851562 -115.128906 69.40625 -120.640625 C 72.050781 -121.304688 74.503906 -121.800781 76.765625 -122.125 C 79.023438 -122.457031 81.367188 -122.625 83.796875 -122.625 C 87.316406 -122.625 90.726562 -122.15625 94.03125 -121.21875 C 97.34375 -120.28125 100.15625 -118.988281 102.46875 -117.34375 Z M 102.46875 -117.34375 "/></g></g></g><g fill="#fffefb" fill-opacity="1"><g transform="translate(522.741279, 698.27905)"><g><path d="M 60.8125 -121.140625 C 74.039062 -121.140625 84.257812 -116.8125 91.46875 -108.15625 C 98.6875 -99.507812 102.296875 -87.253906 102.296875 -71.390625 C 102.296875 -62.796875 101.140625 -54.0625 98.828125 -45.1875 C 96.515625 -36.320312 93.320312 -28.476562 89.25 -21.65625 C 84.175781 -13.5 78.003906 -7.296875 70.734375 -3.046875 C 63.460938 1.191406 55.253906 3.3125 46.109375 3.3125 C 32.890625 3.3125 22.585938 -1.78125 15.203125 -11.96875 C 7.816406 -22.164062 4.125 -35.96875 4.125 -53.375 C 4.125 -73.320312 9.359375 -89.601562 19.828125 -102.21875 C 30.296875 -114.832031 43.957031 -121.140625 60.8125 -121.140625 Z M 53.046875 -18.171875 C 58.003906 -18.171875 61.695312 -21.585938 64.125 -28.421875 C 66.550781 -35.253906 67.765625 -46.550781 67.765625 -62.3125 C 67.765625 -75.851562 66.6875 -85.460938 64.53125 -91.140625 C 62.382812 -96.816406 58.78125 -99.65625 53.71875 -99.65625 C 48.644531 -99.65625 44.757812 -96.019531 42.0625 -88.75 C 39.363281 -81.476562 38.015625 -71.234375 38.015625 -58.015625 C 38.015625 -45.453125 39.304688 -35.671875 41.890625 -28.671875 C 44.484375 -21.671875 48.203125 -18.171875 53.046875 -18.171875 Z M 53.046875 -18.171875 "/></g></g></g><g fill="#fffefb" fill-opacity="1"><g transform="translate(629.993655, 698.27905)"><g><path d="M 43.140625 -34.546875 C 43.140625 -30.578125 43.191406 -26.304688 43.296875 -21.734375 C 43.410156 -17.160156 43.851562 -6.171875 44.625 11.234375 C 39.664062 11.234375 34.648438 11.039062 29.578125 10.65625 C 24.515625 10.269531 20.054688 9.75 16.203125 9.09375 C 14.109375 -8.425781 12.5625 -25.3125 11.5625 -41.5625 C 10.570312 -57.8125 10.078125 -73.59375 10.078125 -88.90625 C 10.078125 -92.320312 10.160156 -95.957031 10.328125 -99.8125 C 10.492188 -103.675781 10.796875 -108.085938 11.234375 -113.046875 C 16.960938 -115.910156 23.929688 -118.222656 32.140625 -119.984375 C 40.347656 -121.742188 48.421875 -122.625 56.359375 -122.625 C 69.796875 -122.625 80.175781 -119.785156 87.5 -114.109375 C 94.832031 -108.441406 98.5 -100.539062 98.5 -90.40625 C 98.5 -78.0625 93.566406 -66.875 83.703125 -56.84375 C 73.847656 -46.820312 60.328125 -39.390625 43.140625 -34.546875 Z M 64.453125 -84.453125 C 64.453125 -90.835938 63.210938 -95.679688 60.734375 -98.984375 C 58.253906 -102.296875 54.535156 -103.953125 49.578125 -103.953125 C 48.585938 -103.953125 47.84375 -103.953125 47.34375 -103.953125 C 46.851562 -103.953125 46.382812 -103.894531 45.9375 -103.78125 C 45.28125 -96.40625 44.726562 -88.75 44.28125 -80.8125 C 43.84375 -72.882812 43.515625 -64.566406 43.296875 -55.859375 C 50.347656 -57.734375 55.632812 -61.035156 59.15625 -65.765625 C 62.6875 -70.503906 64.453125 -76.734375 64.453125 -84.453125 Z M 64.453125 -84.453125 "/></g></g></g></svg>