<svg xmlns="http://www.w3.org/2000/svg" xmlns:xlink="http://www.w3.org/1999/xlink" width="1000" zoomAndPan="magnify" viewBox="0 0 750 749.999995" height="1000" preserveAspectRatio="xMidYMid meet" version="1.0"><defs><g/></defs><rect x="-75" width="900" fill="#ffffff" y="-74.999999" height="899.999994" fill-opacity="1"/><rect x="-75" width="900" fill="#ffffff" y="-74.999999" height="899.999994" fill-opacity="1"/><rect x="-75" width="900" fill="#fffefb" y="-74.999999" height="899.999994" fill-opacity="1"/><path fill="#b6ccd8" d="M 248.949219 351.183594 C 246.972656 339.5625 245 326.070312 240.949219 314.964844 C 236.792969 303.753906 219.03125 297.113281 209.890625 289.535156 C 195.039062 277.082031 182.261719 261.617188 175.71875 243.457031 C 169.171875 225.292969 169.171875 204.222656 178.417969 187.203125 C 184.339844 176.097656 193.792969 167.277344 199.089844 155.964844 C 207.917969 137.28125 204.59375 114.65625 213.527344 96.078125 C 225.886719 70.339844 256.84375 60.480469 278.65625 42.113281 C 286.445312 35.574219 293.199219 27.894531 301.300781 21.5625 C 324.878906 3.191406 359.363281 0.183594 385.746094 14.296875 C 397.070312 20.316406 406.730469 29.035156 418.46875 34.535156 C 432.699219 41.28125 448.902344 42.628906 463.753906 47.921875 C 502.914062 61.726562 529.402344 104.902344 524 146.105469 C 522.859375 154.824219 520.46875 163.4375 520.261719 172.257812 C 519.949219 194.261719 533.558594 213.667969 540.101562 234.738281 C 551.527344 271.0625 541.554688 310.5 545.191406 348.382812 C 547.890625 377.234375 556.617188 405.257812 564.71875 432.96875 C 580.921875 488.285156 571.472656 522.636719 570.015625 524.816406 L 361.546875 524.816406 C 357.703125 522.429688 354.171875 519.523438 351.367188 515.789062 C 341.394531 502.710938 341.1875 482.992188 336.410156 467.734375 C 330.28125 448.015625 328.410156 427.675781 312.621094 413.871094 C 300.46875 403.285156 292.679688 397.886719 279.277344 388.753906 C 266.085938 379.3125 251.648438 367.0625 248.949219 351.183594 Z M 248.949219 351.183594 " fill-opacity="1" fill-rule="nonzero"/><path fill="#313d44" d="M 400.914062 143.300781 C 410.988281 147.972656 419.714844 154.925781 428.4375 161.878906 C 452.019531 180.664062 475.492188 199.554688 499.074219 218.339844 C 506.136719 224.046875 513.511719 229.964844 517.355469 238.164062 C 523.066406 250.304688 529.609375 287.355469 503.953125 306.972656 C 495.644531 313.40625 485.878906 317.558594 475.597656 320.359375 C 453.886719 326.070312 431.867188 331.464844 412.132812 341.949219 C 391.980469 352.636719 374.839844 368.414062 354.066406 377.648438 C 333.292969 386.886719 305.972656 387.71875 290.703125 370.902344 C 278.863281 357.929688 277.824219 338.109375 281.355469 320.878906 C 284.886719 303.652344 292.46875 287.460938 295.585938 270.128906 C 299.742188 248.332031 296.832031 225.8125 298.078125 203.707031 C 301.089844 150.566406 349.289062 119.222656 400.914062 143.300781 Z M 325.191406 44.5 C 319.375 54.566406 316.878906 66.605469 319.164062 78.019531 C 321.449219 89.4375 328.722656 99.921875 339.109375 105.109375 C 349.496094 110.195312 362.894531 109.570312 372.140625 102.617188 C 379.929688 96.703125 384.398438 86.945312 385.019531 77.292969 C 385.746094 67.644531 383.046875 57.78125 378.890625 48.960938 C 375.878906 42.839844 372.035156 36.820312 366.53125 32.875 C 351.886719 22.390625 333.394531 30.175781 325.191406 44.5 Z M 427.089844 93.796875 C 425.117188 100.957031 423.558594 108.328125 424.078125 115.589844 C 424.597656 122.855469 427.503906 130.328125 433.527344 135.414062 C 440.175781 141.121094 449.628906 143.300781 458.875 143.925781 C 465.003906 144.339844 471.546875 144.132812 477.257812 142.058594 C 487.75 138.320312 494.398438 128.460938 495.644531 118.496094 C 497.515625 103.863281 487.4375 78.851562 471.859375 71.171875 C 451.808594 61.414062 431.347656 77.605469 427.089844 93.796875 Z M 240.429688 86.429688 C 235.546875 89.644531 232.328125 94.523438 230.042969 99.402344 C 224.640625 111.128906 223.5 124.308594 226.71875 136.660156 C 228.902344 144.859375 233.78125 153.472656 242.820312 157.003906 C 251.335938 160.425781 261.933594 158.453125 269.929688 153.992188 C 281.5625 147.453125 288.730469 135.933594 289.5625 124.207031 C 290.394531 112.476562 285.09375 100.542969 276.058594 91.511719 C 267.539062 83.210938 251.542969 79.164062 240.429688 86.429688 Z M 216.953125 208.066406 C 211.136719 213.875 209.683594 222.90625 209.582031 231.207031 C 209.371094 240.652344 210.515625 250.410156 214.566406 258.917969 C 218.617188 267.429688 226.097656 274.796875 235.339844 276.976562 C 245.519531 279.363281 256.632812 275.316406 263.59375 267.535156 C 270.554688 259.75 273.253906 248.851562 272.320312 238.472656 C 271.175781 228.09375 266.503906 218.339844 259.855469 210.242188 C 256.84375 206.613281 253.414062 203.1875 249.15625 201.214844 C 240.636719 197.476562 223.394531 201.734375 216.953125 208.066406 Z M 216.953125 208.066406 " fill-opacity="1" fill-rule="nonzero"/><g fill="#313d44" fill-opacity="1"><g transform="translate(15.278775, 697.703912)"><g><path d="M 43.125 -34.53125 C 43.125 -30.5625 43.175781 -26.289062 43.28125 -21.71875 C 43.394531 -17.15625 43.835938 -6.171875 44.609375 11.234375 C 39.648438 11.234375 34.632812 11.039062 29.5625 10.65625 C 24.5 10.269531 20.039062 9.75 16.1875 9.09375 C 14.09375 -8.425781 12.550781 -25.304688 11.5625 -41.546875 C 10.570312 -57.796875 10.078125 -73.578125 10.078125 -88.890625 C 10.078125 -92.304688 10.160156 -95.941406 10.328125 -99.796875 C 10.492188 -103.648438 10.796875 -108.054688 11.234375 -113.015625 C 16.960938 -115.878906 23.929688 -118.191406 32.140625 -119.953125 C 40.347656 -121.722656 48.414062 -122.609375 56.34375 -122.609375 C 69.78125 -122.609375 80.160156 -119.769531 87.484375 -114.09375 C 94.816406 -108.414062 98.484375 -100.515625 98.484375 -90.390625 C 98.484375 -78.046875 93.550781 -66.859375 83.6875 -56.828125 C 73.832031 -46.804688 60.3125 -39.375 43.125 -34.53125 Z M 64.4375 -84.4375 C 64.4375 -90.820312 63.195312 -95.664062 60.71875 -98.96875 C 58.238281 -102.28125 54.519531 -103.9375 49.5625 -103.9375 C 48.570312 -103.9375 47.828125 -103.9375 47.328125 -103.9375 C 46.835938 -103.9375 46.375 -103.878906 45.9375 -103.765625 C 45.269531 -96.390625 44.71875 -88.734375 44.28125 -80.796875 C 43.84375 -72.867188 43.515625 -64.550781 43.296875 -55.84375 C 50.335938 -57.71875 55.617188 -61.023438 59.140625 -65.765625 C 62.671875 -70.503906 64.4375 -76.726562 64.4375 -84.4375 Z M 64.4375 -84.4375 "/></g></g></g><g fill="#313d44" fill-opacity="1"><g transform="translate(120.02518, 697.703912)"><g><path d="M 95.671875 1.65625 C 92.472656 2.644531 82.253906 3.800781 65.015625 5.125 C 47.773438 6.445312 33.375 7.109375 21.8125 7.109375 C 19.0625 -10.410156 16.554688 -30.84375 14.296875 -54.1875 C 12.035156 -77.539062 10.796875 -96.988281 10.578125 -112.53125 C 27.535156 -115.71875 42.265625 -118 54.765625 -119.375 C 67.273438 -120.757812 79.535156 -121.453125 91.546875 -121.453125 C 91.546875 -117.367188 91.296875 -113.039062 90.796875 -108.46875 C 90.296875 -103.90625 89.5 -99.144531 88.40625 -94.1875 C 82.226562 -94.1875 75.832031 -94.070312 69.21875 -93.84375 C 62.613281 -93.625 55.734375 -93.296875 48.578125 -92.859375 C 48.359375 -90.429688 48.191406 -87.648438 48.078125 -84.515625 C 47.972656 -81.378906 47.863281 -76.671875 47.75 -70.390625 C 53.363281 -72.046875 58.976562 -73.257812 64.59375 -74.03125 C 70.21875 -74.800781 75.953125 -75.1875 81.796875 -75.1875 C 82.671875 -71.320312 83.328125 -67.351562 83.765625 -63.28125 C 84.210938 -59.207031 84.4375 -54.414062 84.4375 -48.90625 C 78.15625 -48.90625 71.929688 -48.710938 65.765625 -48.328125 C 59.597656 -47.941406 53.59375 -47.421875 47.75 -46.765625 C 47.863281 -41.804688 48.03125 -36.957031 48.25 -32.21875 C 48.46875 -27.476562 48.796875 -22.960938 49.234375 -18.671875 C 52.429688 -18.671875 59.148438 -19.300781 69.390625 -20.5625 C 79.640625 -21.832031 87.351562 -22.960938 92.53125 -23.953125 C 93.414062 -21.640625 94.160156 -17.867188 94.765625 -12.640625 C 95.367188 -7.410156 95.671875 -2.644531 95.671875 1.65625 Z M 95.671875 1.65625 "/></g></g></g><g fill="#313d44" fill-opacity="1"><g transform="translate(220.641183, 697.703912)"><g><path d="M 66.09375 -7.265625 C 61.25 -6.054688 56.484375 -5.175781 51.796875 -4.625 C 47.117188 -4.070312 41.859375 -3.796875 36.015625 -3.796875 C 36.015625 -19.222656 35.570312 -35.882812 34.6875 -53.78125 C 33.8125 -71.6875 32.601562 -87.132812 31.0625 -100.125 C 29.632812 -100.019531 26.878906 -99.773438 22.796875 -99.390625 C 18.722656 -99.003906 13.269531 -98.476562 6.4375 -97.8125 C 5.007812 -101.675781 3.910156 -105.644531 3.140625 -109.71875 C 2.367188 -113.789062 1.984375 -117.753906 1.984375 -121.609375 C 17.078125 -125.023438 31.476562 -127.476562 45.1875 -128.96875 C 58.90625 -130.457031 74.410156 -131.203125 91.703125 -131.203125 C 92.253906 -129.328125 92.664062 -127.203125 92.9375 -124.828125 C 93.21875 -122.460938 93.359375 -119.847656 93.359375 -116.984375 C 93.359375 -115.003906 93.21875 -112.859375 92.9375 -110.546875 C 92.664062 -108.234375 92.203125 -105.695312 91.546875 -102.9375 C 87.359375 -102.9375 83.28125 -102.910156 79.3125 -102.859375 C 75.34375 -102.804688 71.429688 -102.664062 67.578125 -102.4375 C 68.015625 -95.613281 68.34375 -88.507812 68.5625 -81.125 C 68.789062 -73.75 68.90625 -66.148438 68.90625 -58.328125 C 68.90625 -51.054688 68.679688 -43.207031 68.234375 -34.78125 C 67.796875 -26.351562 67.082031 -17.179688 66.09375 -7.265625 Z M 66.09375 -7.265625 "/></g></g></g><g fill="#313d44" fill-opacity="1"><g transform="translate(316.6312, 697.703912)"><g><path d="M 79.96875 -56.515625 C 82.507812 -52.984375 84.382812 -49.257812 85.59375 -45.34375 C 86.800781 -41.4375 87.40625 -37.226562 87.40625 -32.71875 C 87.40625 -21.375 83.328125 -11.984375 75.171875 -4.546875 C 67.023438 2.890625 57.003906 6.609375 45.109375 6.609375 C 32.003906 6.609375 21.070312 2.5625 12.3125 -5.53125 C 3.550781 -13.632812 -0.828125 -23.25 -0.828125 -34.375 C 2.703125 -36.132812 6.972656 -37.644531 11.984375 -38.90625 C 16.992188 -40.175781 21.148438 -40.8125 24.453125 -40.8125 C 24.453125 -32.4375 26.019531 -25.6875 29.15625 -20.5625 C 32.300781 -15.445312 36.570312 -12.890625 41.96875 -12.890625 C 45.820312 -12.890625 48.796875 -13.960938 50.890625 -16.109375 C 52.984375 -18.253906 54.03125 -21.203125 54.03125 -24.953125 C 54.03125 -28.140625 52.957031 -31.25 50.8125 -34.28125 C 48.664062 -37.3125 43.898438 -41.632812 36.515625 -47.25 C 31.003906 -51.4375 26.925781 -54.796875 24.28125 -57.328125 C 21.644531 -59.867188 19.390625 -62.347656 17.515625 -64.765625 C 14.867188 -68.515625 12.882812 -72.398438 11.5625 -76.421875 C 10.238281 -80.441406 9.578125 -84.765625 9.578125 -89.390625 C 9.578125 -100.410156 13.515625 -109.390625 21.390625 -116.328125 C 29.273438 -123.265625 39.601562 -126.734375 52.375 -126.734375 C 63.71875 -126.734375 72.832031 -124.003906 79.71875 -118.546875 C 86.601562 -113.097656 91.148438 -105.03125 93.359375 -94.34375 C 90.160156 -92.25 86.523438 -90.625 82.453125 -89.46875 C 78.378906 -88.3125 73.035156 -87.515625 66.421875 -87.078125 C 65.429688 -93.910156 63.78125 -98.8125 61.46875 -101.78125 C 59.15625 -104.757812 55.960938 -106.25 51.890625 -106.25 C 49.347656 -106.25 47.332031 -105.445312 45.84375 -103.84375 C 44.363281 -102.25 43.625 -100.128906 43.625 -97.484375 C 43.625 -93.847656 44.722656 -90.378906 46.921875 -87.078125 C 49.128906 -83.773438 53.976562 -79.3125 61.46875 -73.6875 C 66.976562 -69.613281 71 -66.363281 73.53125 -63.9375 C 76.0625 -61.519531 78.207031 -59.046875 79.96875 -56.515625 Z M 79.96875 -56.515625 "/></g></g></g><g fill="#313d44" fill-opacity="1"><g transform="translate(409.151684, 697.703912)"><g><path d="M 102.4375 -117.3125 C 103.320312 -99.25 104.066406 -78.097656 104.671875 -53.859375 C 105.273438 -29.628906 105.578125 -8.375 105.578125 9.90625 C 99.523438 9.90625 93.25 9.628906 86.75 9.078125 C 80.25 8.535156 75.566406 7.820312 72.703125 6.9375 C 72.703125 -0.21875 72.644531 -8.585938 72.53125 -18.171875 C 72.425781 -27.753906 72.316406 -37.445312 72.203125 -47.25 C 66.804688 -47.144531 61.738281 -46.953125 57 -46.671875 C 52.269531 -46.398438 47.8125 -45.988281 43.625 -45.4375 C 43.507812 -39.925781 43.425781 -34.113281 43.375 -28 C 43.320312 -21.894531 43.296875 -13.882812 43.296875 -3.96875 C 40.429688 -3.082031 36.050781 -2.304688 30.15625 -1.640625 C 24.257812 -0.984375 18.941406 -0.65625 14.203125 -0.65625 C 11.890625 -28.75 10.265625 -51.382812 9.328125 -68.5625 C 8.398438 -85.75 7.9375 -100.347656 7.9375 -112.359375 C 10.570312 -114.117188 13.875 -115.492188 17.84375 -116.484375 C 21.8125 -117.484375 25.890625 -117.984375 30.078125 -117.984375 C 33.160156 -117.984375 35.96875 -117.816406 38.5 -117.484375 C 41.03125 -117.148438 43.5625 -116.65625 46.09375 -116 C 45.65625 -111.039062 45.269531 -104.648438 44.9375 -96.828125 C 44.613281 -89.003906 44.34375 -80.25 44.125 -70.5625 C 48.96875 -71.332031 53.644531 -71.960938 58.15625 -72.453125 C 62.675781 -72.953125 67.195312 -73.253906 71.71875 -73.359375 C 71.488281 -82.941406 71.15625 -91.835938 70.71875 -100.046875 C 70.28125 -108.253906 69.835938 -115.113281 69.390625 -120.625 C 72.035156 -121.28125 74.488281 -121.773438 76.75 -122.109375 C 79.007812 -122.441406 81.351562 -122.609375 83.78125 -122.609375 C 87.300781 -122.609375 90.710938 -122.140625 94.015625 -121.203125 C 97.316406 -120.265625 100.125 -118.96875 102.4375 -117.3125 Z M 102.4375 -117.3125 "/></g></g></g><g fill="#313d44" fill-opacity="1"><g transform="translate(522.654477, 697.703912)"><g><path d="M 60.8125 -121.109375 C 74.03125 -121.109375 84.242188 -116.785156 91.453125 -108.140625 C 98.671875 -99.492188 102.28125 -87.238281 102.28125 -71.375 C 102.28125 -62.789062 101.125 -54.0625 98.8125 -45.1875 C 96.5 -36.320312 93.300781 -28.472656 89.21875 -21.640625 C 84.15625 -13.492188 77.988281 -7.300781 70.71875 -3.0625 C 63.445312 1.175781 55.238281 3.296875 46.09375 3.296875 C 32.875 3.296875 22.570312 -1.796875 15.1875 -11.984375 C 7.8125 -22.171875 4.125 -35.96875 4.125 -53.375 C 4.125 -73.3125 9.359375 -89.582031 19.828125 -102.1875 C 30.296875 -114.800781 43.957031 -121.109375 60.8125 -121.109375 Z M 53.046875 -18.171875 C 57.992188 -18.171875 61.679688 -21.585938 64.109375 -28.421875 C 66.535156 -35.253906 67.75 -46.546875 67.75 -62.296875 C 67.75 -75.835938 66.671875 -85.445312 64.515625 -91.125 C 62.367188 -96.800781 58.765625 -99.640625 53.703125 -99.640625 C 48.628906 -99.640625 44.742188 -96.003906 42.046875 -88.734375 C 39.347656 -81.460938 38 -71.21875 38 -58 C 38 -45.4375 39.289062 -35.65625 41.875 -28.65625 C 44.46875 -21.664062 48.191406 -18.171875 53.046875 -18.171875 Z M 53.046875 -18.171875 "/></g></g></g><g fill="#313d44" fill-opacity="1"><g transform="translate(629.87908, 697.703912)"><g><path d="M 43.125 -34.53125 C 43.125 -30.5625 43.175781 -26.289062 43.28125 -21.71875 C 43.394531 -17.15625 43.835938 -6.171875 44.609375 11.234375 C 39.648438 11.234375 34.632812 11.039062 29.5625 10.65625 C 24.5 10.269531 20.039062 9.75 16.1875 9.09375 C 14.09375 -8.425781 12.550781 -25.304688 11.5625 -41.546875 C 10.570312 -57.796875 10.078125 -73.578125 10.078125 -88.890625 C 10.078125 -92.304688 10.160156 -95.941406 10.328125 -99.796875 C 10.492188 -103.648438 10.796875 -108.054688 11.234375 -113.015625 C 16.960938 -115.878906 23.929688 -118.191406 32.140625 -119.953125 C 40.347656 -121.722656 48.414062 -122.609375 56.34375 -122.609375 C 69.78125 -122.609375 80.160156 -119.769531 87.484375 -114.09375 C 94.816406 -108.414062 98.484375 -100.515625 98.484375 -90.390625 C 98.484375 -78.046875 93.550781 -66.859375 83.6875 -56.828125 C 73.832031 -46.804688 60.3125 -39.375 43.125 -34.53125 Z M 64.4375 -84.4375 C 64.4375 -90.820312 63.195312 -95.664062 60.71875 -98.96875 C 58.238281 -102.28125 54.519531 -103.9375 49.5625 -103.9375 C 48.570312 -103.9375 47.828125 -103.9375 47.328125 -103.9375 C 46.835938 -103.9375 46.375 -103.878906 45.9375 -103.765625 C 45.269531 -96.390625 44.71875 -88.734375 44.28125 -80.796875 C 43.84375 -72.867188 43.515625 -64.550781 43.296875 -55.84375 C 50.335938 -57.71875 55.617188 -61.023438 59.140625 -65.765625 C 62.671875 -70.503906 64.4375 -76.726562 64.4375 -84.4375 Z M 64.4375 -84.4375 "/></g></g></g></svg>