<svg xmlns="http://www.w3.org/2000/svg" xmlns:xlink="http://www.w3.org/1999/xlink" width="1000" zoomAndPan="magnify" viewBox="0 0 750 749.999995" height="1000" preserveAspectRatio="xMidYMid meet" version="1.0"><defs><g/><clipPath id="b27d542bdd"><path d="M 248 167 L 451 167 L 451 427.679688 L 248 427.679688 Z M 248 167 " clip-rule="nonzero"/></clipPath></defs><rect x="-75" width="900" fill="#ffffff" y="-74.999999" height="899.999994" fill-opacity="1"/><rect x="-75" width="900" fill="#ffffff" y="-74.999999" height="899.999994" fill-opacity="1"/><rect x="-75" width="900" fill="#fffefb" y="-74.999999" height="899.999994" fill-opacity="1"/><g clip-path="url(#b27d542bdd)"><path fill="#b6ccd8" d="M 287.769531 340.527344 C 286.78125 334.699219 285.792969 327.933594 283.761719 322.363281 C 281.679688 316.742188 272.785156 313.414062 268.207031 309.613281 C 260.765625 303.367188 254.367188 295.613281 251.085938 286.507812 C 247.808594 277.398438 247.808594 266.835938 252.441406 258.300781 C 255.40625 252.730469 260.140625 248.308594 262.792969 242.636719 C 267.21875 233.265625 265.550781 221.921875 270.027344 212.605469 C 276.21875 199.699219 291.722656 194.757812 302.648438 185.542969 C 306.550781 182.265625 309.933594 178.414062 313.992188 175.242188 C 325.804688 166.027344 343.078125 164.519531 356.292969 171.597656 C 361.964844 174.617188 366.804688 178.988281 372.683594 181.746094 C 379.8125 185.128906 387.929688 185.804688 395.367188 188.460938 C 414.984375 195.378906 428.253906 217.03125 425.546875 237.691406 C 424.972656 242.0625 423.777344 246.382812 423.671875 250.804688 C 423.515625 261.839844 430.332031 271.570312 433.613281 282.136719 C 439.335938 300.351562 434.339844 320.125 436.160156 339.121094 C 437.515625 353.589844 441.882812 367.640625 445.941406 381.535156 C 454.058594 409.273438 449.324219 426.5 448.597656 427.59375 L 344.171875 427.59375 C 342.246094 426.398438 340.476562 424.941406 339.070312 423.066406 C 334.078125 416.507812 333.972656 406.621094 331.578125 398.96875 C 328.507812 389.082031 327.574219 378.882812 319.664062 371.960938 C 313.578125 366.652344 309.675781 363.945312 302.960938 359.367188 C 296.355469 354.628906 289.121094 348.488281 287.769531 340.527344 Z M 287.769531 340.527344 " fill-opacity="1" fill-rule="nonzero"/></g><path fill="#313d44" d="M 363.890625 236.285156 C 368.9375 238.628906 373.308594 242.113281 377.679688 245.601562 C 389.488281 255.019531 401.25 264.492188 413.058594 273.914062 C 416.597656 276.773438 420.292969 279.742188 422.214844 283.851562 C 425.078125 289.941406 428.355469 308.519531 415.503906 318.355469 C 411.34375 321.582031 406.453125 323.664062 401.300781 325.070312 C 390.425781 327.933594 379.394531 330.640625 369.507812 335.894531 C 359.414062 341.253906 350.832031 349.164062 340.425781 353.796875 C 330.019531 358.429688 316.335938 358.847656 308.6875 350.414062 C 302.753906 343.910156 302.234375 333.96875 304.003906 325.332031 C 305.773438 316.691406 309.570312 308.574219 311.132812 299.882812 C 313.210938 288.953125 311.753906 277.660156 312.378906 266.574219 C 313.886719 239.929688 338.03125 224.210938 363.890625 236.285156 Z M 325.960938 186.742188 C 323.046875 191.789062 321.796875 197.828125 322.941406 203.550781 C 324.085938 209.277344 327.730469 214.53125 332.933594 217.132812 C 338.136719 219.683594 344.847656 219.371094 349.476562 215.886719 C 353.378906 212.917969 355.617188 208.027344 355.929688 203.1875 C 356.292969 198.347656 354.941406 193.402344 352.859375 188.980469 C 351.351562 185.910156 349.425781 182.890625 346.667969 180.914062 C 339.332031 175.65625 330.070312 179.558594 325.960938 186.742188 Z M 377.003906 211.460938 C 376.011719 215.050781 375.234375 218.746094 375.492188 222.390625 C 375.753906 226.035156 377.210938 229.78125 380.226562 232.332031 C 383.558594 235.191406 388.292969 236.285156 392.921875 236.597656 C 395.992188 236.804688 399.269531 236.703125 402.132812 235.660156 C 407.386719 233.789062 410.71875 228.84375 411.34375 223.847656 C 412.277344 216.511719 407.230469 203.96875 399.425781 200.117188 C 389.386719 195.222656 379.136719 203.34375 377.003906 211.460938 Z M 283.503906 207.765625 C 281.058594 209.378906 279.445312 211.824219 278.300781 214.273438 C 275.59375 220.152344 275.023438 226.761719 276.632812 232.957031 C 277.726562 237.066406 280.171875 241.386719 284.699219 243.15625 C 288.964844 244.871094 294.273438 243.882812 298.28125 241.644531 C 304.105469 238.367188 307.695312 232.589844 308.113281 226.710938 C 308.53125 220.828125 305.875 214.84375 301.347656 210.316406 C 297.082031 206.152344 289.070312 204.125 283.503906 207.765625 Z M 271.742188 268.761719 C 268.828125 271.675781 268.101562 276.203125 268.050781 280.367188 C 267.945312 285.101562 268.519531 289.992188 270.546875 294.261719 C 272.578125 298.527344 276.324219 302.222656 280.953125 303.316406 C 286.050781 304.511719 291.621094 302.484375 295.105469 298.582031 C 298.589844 294.675781 299.945312 289.214844 299.476562 284.007812 C 298.902344 278.804688 296.5625 273.914062 293.234375 269.851562 C 291.722656 268.03125 290.007812 266.3125 287.875 265.324219 C 283.605469 263.453125 274.96875 265.585938 271.742188 268.761719 Z M 271.742188 268.761719 " fill-opacity="1" fill-rule="nonzero"/><g fill="#313d44" fill-opacity="1"><g transform="translate(205.432605, 514.307537)"><g><path d="M 20.328125 -16.28125 C 20.328125 -14.40625 20.351562 -12.390625 20.40625 -10.234375 C 20.457031 -8.085938 20.664062 -2.910156 21.03125 5.296875 C 18.695312 5.296875 16.332031 5.203125 13.9375 5.015625 C 11.550781 4.835938 9.453125 4.59375 7.640625 4.28125 C 6.648438 -3.96875 5.921875 -11.921875 5.453125 -19.578125 C 4.984375 -27.242188 4.75 -34.6875 4.75 -41.90625 C 4.75 -43.507812 4.785156 -45.21875 4.859375 -47.03125 C 4.941406 -48.851562 5.085938 -50.9375 5.296875 -53.28125 C 7.992188 -54.625 11.273438 -55.710938 15.140625 -56.546875 C 19.015625 -57.378906 22.820312 -57.796875 26.5625 -57.796875 C 32.894531 -57.796875 37.785156 -56.457031 41.234375 -53.78125 C 44.691406 -51.101562 46.421875 -47.378906 46.421875 -42.609375 C 46.421875 -36.785156 44.097656 -31.507812 39.453125 -26.78125 C 34.804688 -22.0625 28.429688 -18.5625 20.328125 -16.28125 Z M 30.375 -39.796875 C 30.375 -42.804688 29.789062 -45.09375 28.625 -46.65625 C 27.457031 -48.21875 25.707031 -49 23.375 -49 C 22.90625 -49 22.550781 -49 22.3125 -49 C 22.082031 -49 21.863281 -48.972656 21.65625 -48.921875 C 21.34375 -45.441406 21.082031 -41.832031 20.875 -38.09375 C 20.664062 -34.351562 20.507812 -30.429688 20.40625 -26.328125 C 23.726562 -27.210938 26.21875 -28.769531 27.875 -31 C 29.539062 -33.226562 30.375 -36.160156 30.375 -39.796875 Z M 30.375 -39.796875 "/></g></g></g><g fill="#313d44" fill-opacity="1"><g transform="translate(254.810075, 514.307537)"><g><path d="M 45.09375 0.78125 C 43.59375 1.25 38.773438 1.789062 30.640625 2.40625 C 22.515625 3.03125 15.726562 3.34375 10.28125 3.34375 C 8.976562 -4.90625 7.796875 -14.535156 6.734375 -25.546875 C 5.671875 -36.554688 5.085938 -45.722656 4.984375 -53.046875 C 12.984375 -54.546875 19.925781 -55.617188 25.8125 -56.265625 C 31.707031 -56.921875 37.488281 -57.25 43.15625 -57.25 C 43.15625 -55.332031 43.035156 -53.296875 42.796875 -51.140625 C 42.566406 -48.984375 42.191406 -46.734375 41.671875 -44.390625 C 38.765625 -44.390625 35.753906 -44.335938 32.640625 -44.234375 C 29.523438 -44.140625 26.28125 -43.988281 22.90625 -43.78125 C 22.800781 -42.632812 22.722656 -41.320312 22.671875 -39.84375 C 22.617188 -38.363281 22.566406 -36.144531 22.515625 -33.1875 C 25.160156 -33.957031 27.804688 -34.523438 30.453125 -34.890625 C 33.097656 -35.253906 35.800781 -35.4375 38.5625 -35.4375 C 38.96875 -33.625 39.273438 -31.753906 39.484375 -29.828125 C 39.691406 -27.910156 39.796875 -25.65625 39.796875 -23.0625 C 36.835938 -23.0625 33.90625 -22.96875 31 -22.78125 C 28.09375 -22.601562 25.265625 -22.359375 22.515625 -22.046875 C 22.566406 -19.703125 22.644531 -17.414062 22.75 -15.1875 C 22.851562 -12.957031 23.007812 -10.828125 23.21875 -8.796875 C 24.71875 -8.796875 27.878906 -9.09375 32.703125 -9.6875 C 37.535156 -10.289062 41.175781 -10.828125 43.625 -11.296875 C 44.03125 -10.203125 44.375 -8.421875 44.65625 -5.953125 C 44.945312 -3.492188 45.09375 -1.25 45.09375 0.78125 Z M 45.09375 0.78125 "/></g></g></g><g fill="#313d44" fill-opacity="1"><g transform="translate(302.240473, 514.307537)"><g><path d="M 31.15625 -3.421875 C 28.875 -2.859375 26.628906 -2.445312 24.421875 -2.1875 C 22.210938 -1.925781 19.734375 -1.796875 16.984375 -1.796875 C 16.984375 -9.066406 16.773438 -16.921875 16.359375 -25.359375 C 15.941406 -33.796875 15.367188 -41.078125 14.640625 -47.203125 C 13.960938 -47.148438 12.660156 -47.03125 10.734375 -46.84375 C 8.816406 -46.664062 6.25 -46.421875 3.03125 -46.109375 C 2.363281 -47.929688 1.847656 -49.800781 1.484375 -51.71875 C 1.117188 -53.632812 0.9375 -55.503906 0.9375 -57.328125 C 8.050781 -58.929688 14.835938 -60.082031 21.296875 -60.78125 C 27.765625 -61.488281 35.078125 -61.84375 43.234375 -61.84375 C 43.492188 -60.957031 43.6875 -59.957031 43.8125 -58.84375 C 43.945312 -57.726562 44.015625 -56.492188 44.015625 -55.140625 C 44.015625 -54.210938 43.945312 -53.203125 43.8125 -52.109375 C 43.6875 -51.015625 43.46875 -49.820312 43.15625 -48.53125 C 41.175781 -48.53125 39.25 -48.515625 37.375 -48.484375 C 35.507812 -48.460938 33.671875 -48.398438 31.859375 -48.296875 C 32.066406 -45.078125 32.222656 -41.726562 32.328125 -38.25 C 32.429688 -34.769531 32.484375 -31.1875 32.484375 -27.5 C 32.484375 -24.070312 32.378906 -20.367188 32.171875 -16.390625 C 31.960938 -12.421875 31.625 -8.097656 31.15625 -3.421875 Z M 31.15625 -3.421875 "/></g></g></g><g fill="#313d44" fill-opacity="1"><g transform="translate(347.49018, 514.307537)"><g><path d="M 37.703125 -26.640625 C 38.890625 -24.972656 39.769531 -23.21875 40.34375 -21.375 C 40.914062 -19.53125 41.203125 -17.546875 41.203125 -15.421875 C 41.203125 -10.078125 39.28125 -5.648438 35.4375 -2.140625 C 31.59375 1.359375 26.867188 3.109375 21.265625 3.109375 C 15.085938 3.109375 9.929688 1.203125 5.796875 -2.609375 C 1.671875 -6.421875 -0.390625 -10.953125 -0.390625 -16.203125 C 1.273438 -17.035156 3.285156 -17.75 5.640625 -18.34375 C 8.003906 -18.9375 9.96875 -19.234375 11.53125 -19.234375 C 11.53125 -15.285156 12.269531 -12.101562 13.75 -9.6875 C 15.226562 -7.28125 17.238281 -6.078125 19.78125 -6.078125 C 21.601562 -6.078125 23.003906 -6.582031 23.984375 -7.59375 C 24.972656 -8.601562 25.46875 -9.992188 25.46875 -11.765625 C 25.46875 -13.265625 24.960938 -14.726562 23.953125 -16.15625 C 22.941406 -17.582031 20.695312 -19.625 17.21875 -22.28125 C 14.613281 -24.25 12.6875 -25.828125 11.4375 -27.015625 C 10.195312 -28.210938 9.132812 -29.382812 8.25 -30.53125 C 7.007812 -32.300781 6.078125 -34.132812 5.453125 -36.03125 C 4.828125 -37.925781 4.515625 -39.960938 4.515625 -42.140625 C 4.515625 -47.328125 6.367188 -51.554688 10.078125 -54.828125 C 13.796875 -58.097656 18.664062 -59.734375 24.6875 -59.734375 C 30.039062 -59.734375 34.335938 -58.445312 37.578125 -55.875 C 40.828125 -53.3125 42.972656 -49.507812 44.015625 -44.46875 C 42.503906 -43.488281 40.785156 -42.722656 38.859375 -42.171875 C 36.941406 -41.628906 34.425781 -41.253906 31.3125 -41.046875 C 30.84375 -44.265625 30.0625 -46.570312 28.96875 -47.96875 C 27.882812 -49.375 26.378906 -50.078125 24.453125 -50.078125 C 23.265625 -50.078125 22.316406 -49.703125 21.609375 -48.953125 C 20.910156 -48.203125 20.5625 -47.203125 20.5625 -45.953125 C 20.5625 -44.242188 21.078125 -42.609375 22.109375 -41.046875 C 23.148438 -39.492188 25.4375 -37.390625 28.96875 -34.734375 C 31.570312 -32.816406 33.46875 -31.285156 34.65625 -30.140625 C 35.851562 -29.003906 36.867188 -27.835938 37.703125 -26.640625 Z M 37.703125 -26.640625 "/></g></g></g><g fill="#313d44" fill-opacity="1"><g transform="translate(391.10435, 514.307537)"><g><path d="M 48.296875 -55.296875 C 48.710938 -46.785156 49.0625 -36.816406 49.34375 -25.390625 C 49.625 -13.960938 49.765625 -3.941406 49.765625 4.671875 C 46.910156 4.671875 43.953125 4.539062 40.890625 4.28125 C 37.828125 4.019531 35.617188 3.679688 34.265625 3.265625 C 34.265625 -0.109375 34.238281 -4.050781 34.1875 -8.5625 C 34.132812 -13.082031 34.082031 -17.65625 34.03125 -22.28125 C 31.488281 -22.226562 29.097656 -22.132812 26.859375 -22 C 24.628906 -21.875 22.53125 -21.679688 20.5625 -21.421875 C 20.507812 -18.828125 20.46875 -16.085938 20.4375 -13.203125 C 20.414062 -10.316406 20.40625 -6.539062 20.40625 -1.875 C 19.050781 -1.457031 16.984375 -1.09375 14.203125 -0.78125 C 11.429688 -0.46875 8.929688 -0.3125 6.703125 -0.3125 C 5.609375 -13.550781 4.835938 -24.21875 4.390625 -32.3125 C 3.953125 -40.414062 3.734375 -47.300781 3.734375 -52.96875 C 4.984375 -53.800781 6.539062 -54.445312 8.40625 -54.90625 C 10.28125 -55.375 12.203125 -55.609375 14.171875 -55.609375 C 15.628906 -55.609375 16.953125 -55.53125 18.140625 -55.375 C 19.335938 -55.21875 20.535156 -54.984375 21.734375 -54.671875 C 21.523438 -52.335938 21.34375 -49.328125 21.1875 -45.640625 C 21.03125 -41.953125 20.898438 -37.828125 20.796875 -33.265625 C 23.078125 -33.617188 25.28125 -33.910156 27.40625 -34.140625 C 29.539062 -34.378906 31.671875 -34.523438 33.796875 -34.578125 C 33.703125 -39.097656 33.550781 -43.289062 33.34375 -47.15625 C 33.132812 -51.03125 32.925781 -54.265625 32.71875 -56.859375 C 33.957031 -57.171875 35.109375 -57.40625 36.171875 -57.5625 C 37.242188 -57.71875 38.347656 -57.796875 39.484375 -57.796875 C 41.148438 -57.796875 42.757812 -57.570312 44.3125 -57.125 C 45.875 -56.6875 47.203125 -56.078125 48.296875 -55.296875 Z M 48.296875 -55.296875 "/></g></g></g><g fill="#313d44" fill-opacity="1"><g transform="translate(444.609582, 514.307537)"><g><path d="M 28.65625 -57.09375 C 34.894531 -57.09375 39.710938 -55.050781 43.109375 -50.96875 C 46.515625 -46.894531 48.21875 -41.125 48.21875 -33.65625 C 48.21875 -29.601562 47.671875 -25.484375 46.578125 -21.296875 C 45.484375 -17.117188 43.976562 -13.421875 42.0625 -10.203125 C 39.675781 -6.359375 36.769531 -3.4375 33.34375 -1.4375 C 29.914062 0.5625 26.046875 1.5625 21.734375 1.5625 C 15.503906 1.5625 10.648438 -0.835938 7.171875 -5.640625 C 3.691406 -10.453125 1.953125 -16.957031 1.953125 -25.15625 C 1.953125 -34.550781 4.414062 -42.222656 9.34375 -48.171875 C 14.28125 -54.117188 20.71875 -57.09375 28.65625 -57.09375 Z M 25 -8.5625 C 27.34375 -8.5625 29.082031 -10.171875 30.21875 -13.390625 C 31.363281 -16.609375 31.9375 -21.929688 31.9375 -29.359375 C 31.9375 -35.753906 31.425781 -40.285156 30.40625 -42.953125 C 29.394531 -45.628906 27.695312 -46.96875 25.3125 -46.96875 C 22.925781 -46.96875 21.097656 -45.253906 19.828125 -41.828125 C 18.554688 -38.398438 17.921875 -33.570312 17.921875 -27.34375 C 17.921875 -21.414062 18.53125 -16.800781 19.75 -13.5 C 20.96875 -10.207031 22.71875 -8.5625 25 -8.5625 Z M 25 -8.5625 "/></g></g></g><g fill="#313d44" fill-opacity="1"><g transform="translate(495.155275, 514.307537)"><g><path d="M 20.328125 -16.28125 C 20.328125 -14.40625 20.351562 -12.390625 20.40625 -10.234375 C 20.457031 -8.085938 20.664062 -2.910156 21.03125 5.296875 C 18.695312 5.296875 16.332031 5.203125 13.9375 5.015625 C 11.550781 4.835938 9.453125 4.59375 7.640625 4.28125 C 6.648438 -3.96875 5.921875 -11.921875 5.453125 -19.578125 C 4.984375 -27.242188 4.75 -34.6875 4.75 -41.90625 C 4.75 -43.507812 4.785156 -45.21875 4.859375 -47.03125 C 4.941406 -48.851562 5.085938 -50.9375 5.296875 -53.28125 C 7.992188 -54.625 11.273438 -55.710938 15.140625 -56.546875 C 19.015625 -57.378906 22.820312 -57.796875 26.5625 -57.796875 C 32.894531 -57.796875 37.785156 -56.457031 41.234375 -53.78125 C 44.691406 -51.101562 46.421875 -47.378906 46.421875 -42.609375 C 46.421875 -36.785156 44.097656 -31.507812 39.453125 -26.78125 C 34.804688 -22.0625 28.429688 -18.5625 20.328125 -16.28125 Z M 30.375 -39.796875 C 30.375 -42.804688 29.789062 -45.09375 28.625 -46.65625 C 27.457031 -48.21875 25.707031 -49 23.375 -49 C 22.90625 -49 22.550781 -49 22.3125 -49 C 22.082031 -49 21.863281 -48.972656 21.65625 -48.921875 C 21.34375 -45.441406 21.082031 -41.832031 20.875 -38.09375 C 20.664062 -34.351562 20.507812 -30.429688 20.40625 -26.328125 C 23.726562 -27.210938 26.21875 -28.769531 27.875 -31 C 29.539062 -33.226562 30.375 -36.160156 30.375 -39.796875 Z M 30.375 -39.796875 "/></g></g></g></svg>